<svg xmlns="http://www.w3.org/2000/svg" class="main-svg" style="background: rgb(255, 255, 255);" width="1653.57" height="795.3"><defs id="defs-fdd163"><g class="clips"><clipPath class="plotclip" id="clipfdd163xyplot"><rect width="1452" height="615" /></clipPath><clipPath class="axesclip" id="clipfdd163x"><rect x="80" y="0" width="1452" height="795.3" /></clipPath><clipPath class="axesclip" id="clipfdd163y"><rect x="0" y="100" width="1653.57" height="615" /></clipPath><clipPath class="axesclip" id="clipfdd163xy"><rect x="80" y="100" width="1452" height="615" /></clipPath></g><g class="gradients" /></defs><g class="bglayer" /><g class="draglayer cursor-crosshair"><g class="xy"><rect class="nsewdrag drag" style="fill: transparent; pointer-events: all; stroke-width: 0;" x="80" y="100" width="1452" height="615" data-subplot="xy" /><rect class="nwdrag drag cursor-nw-resize" style="fill: transparent; pointer-events: all; stroke-width: 0;" x="60" y="80" width="20" height="20" data-subplot="xy" /><rect class="nedrag drag cursor-ne-resize" style="fill: transparent; pointer-events: all; stroke-width: 0;" x="1532" y="80" width="20" height="20" data-subplot="xy" /><rect class="swdrag drag cursor-sw-resize" style="fill: transparent; pointer-events: all; stroke-width: 0;" x="60" y="715" width="20" height="20" data-subplot="xy" /><rect class="sedrag drag cursor-se-resize" style="fill: transparent; pointer-events: all; stroke-width: 0;" x="1532" y="715" width="20" height="20" data-subplot="xy" /><rect class="ewdrag drag cursor-ew-resize" style="fill: transparent; pointer-events: all; stroke-width: 0;" x="225.2" y="715.5" width="1161.6" height="20" data-subplot="xy" /><rect class="wdrag drag cursor-w-resize" style="fill: transparent; pointer-events: all; stroke-width: 0;" x="80" y="715.5" width="145.2" height="20" data-subplot="xy" /><rect class="edrag drag cursor-e-resize" style="fill: transparent; pointer-events: all; stroke-width: 0;" x="1386.8" y="715.5" width="145.2" height="20" data-subplot="xy" /><rect class="nsdrag drag cursor-ns-resize" style="fill: transparent; pointer-events: all; stroke-width: 0;" x="59.5" y="161.5" width="20" height="492" data-subplot="xy" /><rect class="sdrag drag cursor-s-resize" style="fill: transparent; pointer-events: all; stroke-width: 0;" x="59.5" y="653.5" width="20" height="61.5" data-subplot="xy" /><rect class="ndrag drag cursor-n-resize" style="fill: transparent; pointer-events: all; stroke-width: 0;" x="59.5" y="100" width="20" height="61.5" data-subplot="xy" /></g></g><g class="layer-below"><g class="imagelayer" /><g class="shapelayer" /></g><g class="cartesianlayer"><g class="subplot xy"><g class="layer-subplot"><g class="shapelayer" /><g class="imagelayer" /></g><g class="gridlayer"><g class="x"><path class="xgrid crisp" style="stroke: rgb(238, 238, 238); stroke-opacity: 1; stroke-width: 1px;" transform="translate(154.99)" d="M 0 100 v 615" /><path class="xgrid crisp" style="stroke: rgb(238, 238, 238); stroke-opacity: 1; stroke-width: 1px;" transform="translate(301.79)" d="M 0 100 v 615" /><path class="xgrid crisp" style="stroke: rgb(238, 238, 238); stroke-opacity: 1; stroke-width: 1px;" transform="translate(448.58)" d="M 0 100 v 615" /><path class="xgrid crisp" style="stroke: rgb(238, 238, 238); stroke-opacity: 1; stroke-width: 1px;" transform="translate(592.19)" d="M 0 100 v 615" /><path class="xgrid crisp" style="stroke: rgb(238, 238, 238); stroke-opacity: 1; stroke-width: 1px;" transform="translate(737.39)" d="M 0 100 v 615" /><path class="xgrid crisp" style="stroke: rgb(238, 238, 238); stroke-opacity: 1; stroke-width: 1px;" transform="translate(884.18)" d="M 0 100 v 615" /><path class="xgrid crisp" style="stroke: rgb(238, 238, 238); stroke-opacity: 1; stroke-width: 1px;" transform="translate(1030.98)" d="M 0 100 v 615" /><path class="xgrid crisp" style="stroke: rgb(238, 238, 238); stroke-opacity: 1; stroke-width: 1px;" transform="translate(1174.58)" d="M 0 100 v 615" /><path class="xgrid crisp" style="stroke: rgb(238, 238, 238); stroke-opacity: 1; stroke-width: 1px;" transform="translate(1319.78)" d="M 0 100 v 615" /><path class="xgrid crisp" style="stroke: rgb(238, 238, 238); stroke-opacity: 1; stroke-width: 1px;" transform="translate(1466.58)" d="M 0 100 v 615" /></g><g class="y"><path class="ygrid crisp" style="stroke: rgb(238, 238, 238); stroke-opacity: 1; stroke-width: 1px;" transform="translate(0 642.64)" d="M 80 0 h 1452" /><path class="ygrid crisp" style="stroke: rgb(238, 238, 238); stroke-opacity: 1; stroke-width: 1px;" transform="translate(0 564.49)" d="M 80 0 h 1452" /><path class="ygrid crisp" style="stroke: rgb(238, 238, 238); stroke-opacity: 1; stroke-width: 1px;" transform="translate(0 486.34)" d="M 80 0 h 1452" /><path class="ygrid crisp" style="stroke: rgb(238, 238, 238); stroke-opacity: 1; stroke-width: 1px;" transform="translate(0 408.19)" d="M 80 0 h 1452" /><path class="ygrid crisp" style="stroke: rgb(238, 238, 238); stroke-opacity: 1; stroke-width: 1px;" transform="translate(0 330.04)" d="M 80 0 h 1452" /><path class="ygrid crisp" style="stroke: rgb(238, 238, 238); stroke-opacity: 1; stroke-width: 1px;" transform="translate(0 251.88)" d="M 80 0 h 1452" /><path class="ygrid crisp" style="stroke: rgb(238, 238, 238); stroke-opacity: 1; stroke-width: 1px;" transform="translate(0 173.73)" d="M 80 0 h 1452" /></g></g><g class="zerolinelayer" /><path class="xlines-below" /><path class="ylines-below" /><g class="overlines-below" /><g class="xaxislayer-below" /><g class="yaxislayer-below" /><g class="overaxes-below" /><g class="plot" clip-path="url(&quot;#clipfdd163xyplot&quot;)" transform="translate(80 100)"><g class="scatterlayer mlayer"><g class="trace scatter trace478fd235-0d2c-4dad-989b-57e99976cc33" style="opacity: 1; stroke-miterlimit: 2;"><g class="fills" /><g class="errorbars" /><g class="lines"><path class="js-line" style="opacity: 1; fill: none; stroke: rgb(31, 119, 180); stroke-opacity: 1; stroke-width: 2px;" d="M 0 274.58 L 1.6 275.36 L 3.19 278.1 L 6.38 281.22 L 11.17 281.62 L 12.76 277.32 L 14.36 276.54 L 15.96 265.2 L 17.55 265.2 L 23.93 264.81 L 25.53 261.3 L 28.72 262.47 L 33.51 267.94 L 35.1 267.55 L 36.7 264.03 L 38.29 264.03 L 39.89 263.25 L 44.68 264.81 L 46.27 264.42 L 51.06 268.33 L 55.85 264.03 L 57.44 264.42 L 59.04 263.25 L 60.63 259.34 L 62.23 259.34 L 67.02 257.39 L 68.61 255.04 L 70.21 252.31 L 71.8 252.31 L 73.4 253.87 L 78.18 253.48 L 79.78 255.83 L 81.38 254.65 L 82.97 253.48 L 84.57 250.75 L 89.35 246.06 L 90.95 220.27 L 92.55 216.75 L 94.14 194.87 L 95.74 194.87 L 100.52 198.38 L 102.12 189.01 L 103.71 187.44 L 106.91 195.26 L 111.69 192.91 L 113.29 190.96 L 114.88 201.12 L 116.48 206.98 L 118.07 201.12 L 122.86 203.86 L 124.46 189.4 L 126.05 185.1 L 127.65 190.57 L 129.24 184.32 L 134.03 190.96 L 135.63 189.01 L 137.22 201.51 L 138.82 205.81 L 140.41 229.25 L 149.99 213.62 L 151.58 212.84 L 156.37 212.06 L 157.96 204.64 L 159.56 194.87 L 161.16 193.7 L 162.75 186.66 L 167.54 177.28 L 169.13 164.78 L 170.73 174.16 L 172.33 180.02 L 173.92 182.75 L 178.71 162.83 L 180.3 165.95 L 181.9 163.61 L 183.49 173.77 L 185.09 171.81 L 189.88 176.11 L 191.47 169.86 L 193.07 174.16 L 194.66 178.46 L 196.26 179.63 L 201.05 181.19 L 202.64 185.88 L 205.83 172.99 L 207.43 173.77 L 212.22 179.63 L 213.81 189.01 L 215.41 193.7 L 217 195.65 L 218.6 186.66 L 234.55 179.24 L 236.15 172.59 L 237.75 170.25 L 239.34 169.47 L 240.94 176.89 L 245.72 167.91 L 247.32 171.03 L 248.91 164 L 250.51 166.34 L 252.11 172.2 L 256.89 183.54 L 258.49 175.72 L 260.08 180.41 L 261.68 183.93 L 263.27 169.08 L 268.06 169.08 L 269.66 169.86 L 271.25 175.33 L 272.85 169.86 L 274.44 175.72 L 279.23 180.02 L 280.83 155.01 L 282.42 146.8 L 284.02 138.99 L 285.61 140.16 L 290.4 116.72 L 292 114.76 L 293.59 116.72 L 295.19 108.9 L 296.78 105.78 L 301.57 63.96 L 303.16 56.15 L 304.76 30.75 L 306.36 60.06 L 307.95 51.85 L 314.33 85.46 L 315.93 80.77 L 319.12 112.81 L 323.91 101.09 L 325.5 101.09 L 327.1 109.68 L 328.69 119.45 L 330.29 109.29 L 335.08 93.27 L 336.67 112.03 L 338.27 107.73 L 339.86 112.81 L 341.46 123.75 L 346.25 122.58 L 347.84 101.87 L 349.44 102.65 L 351.03 91.71 L 352.63 92.49 L 357.42 103.04 L 359.01 87.02 L 360.61 101.48 L 362.2 104.6 L 370.18 85.46 L 371.78 99.91 L 373.37 103.04 L 374.97 101.09 L 379.75 114.37 L 381.35 109.68 L 382.95 94.44 L 384.54 97.18 L 386.14 91.32 L 390.92 65.92 L 392.52 65.92 L 394.11 64.75 L 395.71 45.6 L 397.31 42.47 L 402.09 56.54 L 403.69 48.33 L 405.28 48.72 L 406.88 65.92 L 408.47 71.78 L 413.26 83.89 L 414.86 87.41 L 416.45 71.78 L 418.05 72.56 L 419.64 71.78 L 424.43 52.24 L 426.03 73.73 L 427.62 115.93 L 429.22 130.78 L 430.81 164 L 435.6 162.83 L 437.2 154.23 L 438.79 151.88 L 451.56 133.91 L 453.15 128.05 L 457.94 127.27 L 459.53 140.94 L 461.13 149.93 L 462.73 150.32 L 464.32 153.84 L 469.11 157.36 L 470.7 147.98 L 472.3 149.93 L 473.89 147.59 L 475.49 148.37 L 481.87 151.1 L 483.47 155.01 L 485.06 163.22 L 486.66 165.95 L 491.45 158.53 L 493.04 158.92 L 494.64 155.79 L 496.23 165.17 L 497.83 177.67 L 502.62 193.7 L 504.21 193.3 L 505.81 195.26 L 507.4 189.01 L 509 194.87 L 513.78 202.29 L 515.38 208.15 L 516.98 196.04 L 524.95 190.18 L 528.15 158.53 L 529.74 170.64 L 531.34 168.69 L 536.12 187.05 L 537.72 182.75 L 539.31 171.42 L 540.91 172.59 L 542.51 177.28 L 547.29 168.69 L 548.89 157.36 L 552.08 174.55 L 553.67 196.82 L 561.65 195.65 L 563.25 200.73 L 564.84 203.46 L 569.63 198.38 L 571.23 190.57 L 572.82 192.13 L 574.42 190.57 L 576.01 190.57 L 580.8 183.93 L 582.4 186.27 L 583.99 194.87 L 585.59 197.99 L 587.18 192.52 L 591.97 192.91 L 593.56 196.43 L 595.16 204.64 L 598.35 206.98 L 603.14 206.98 L 606.33 226.91 L 607.93 223 L 609.52 222.61 L 614.31 219.49 L 615.9 219.88 L 617.5 224.57 L 619.09 215.58 L 620.69 225.35 L 625.48 228.47 L 627.07 227.69 L 628.67 231.99 L 630.26 227.3 L 631.86 223.39 L 638.24 235.12 L 639.84 233.55 L 641.43 235.51 L 643.03 235.9 L 647.82 251.14 L 649.41 255.04 L 651.01 265.59 L 652.6 272.24 L 654.2 265.59 L 658.98 284.35 L 660.58 282.01 L 662.18 284.35 L 663.77 284.74 L 665.37 282.4 L 670.15 267.94 L 671.75 269.89 L 673.35 277.71 L 674.94 273.8 L 676.54 273.8 L 681.32 279.66 L 682.92 280.05 L 684.51 280.83 L 686.11 279.66 L 687.71 264.81 L 692.49 252.7 L 695.68 254.26 L 697.28 259.34 L 698.87 259.34 L 703.66 253.87 L 705.26 252.7 L 706.85 263.25 L 708.45 271.46 L 710.04 272.63 L 714.83 271.46 L 716.43 262.47 L 718.02 267.16 L 719.62 257.78 L 727.6 269.11 L 729.19 277.32 L 730.79 277.71 L 732.38 276.54 L 737.17 269.11 L 738.76 260.12 L 741.96 255.04 L 743.55 228.86 L 748.34 213.23 L 749.93 218.7 L 751.53 219.49 L 753.13 225.35 L 754.72 224.96 L 759.51 222.61 L 761.1 213.23 L 762.7 228.08 L 764.29 231.21 L 765.89 229.64 L 770.68 234.72 L 772.27 233.55 L 773.87 234.72 L 775.46 231.6 L 777.06 236.29 L 781.85 242.15 L 783.44 226.91 L 785.04 220.66 L 786.63 221.05 L 788.23 203.86 L 794.61 208.54 L 796.21 202.29 L 797.8 201.12 L 799.4 189.01 L 815.35 212.45 L 816.95 208.15 L 818.55 212.45 L 820.14 235.51 L 821.74 218.31 L 826.52 225.74 L 828.12 215.58 L 829.71 217.14 L 831.31 226.52 L 832.91 200.34 L 837.69 185.1 L 839.29 197.21 L 842.48 179.63 L 844.07 183.93 L 848.86 200.73 L 850.46 194.87 L 852.05 194.48 L 853.65 197.6 L 855.24 187.44 L 860.03 194.09 L 861.63 197.21 L 863.22 198.38 L 864.82 195.26 L 866.41 208.54 L 871.2 208.15 L 872.8 208.93 L 874.39 212.84 L 875.99 205.81 L 877.58 207.76 L 882.37 196.82 L 883.96 207.76 L 885.56 206.2 L 887.16 208.54 L 888.75 217.53 L 893.54 216.75 L 895.13 223 L 896.73 219.09 L 898.33 222.22 L 899.92 215.97 L 904.71 206.98 L 906.3 206.98 L 907.9 212.45 L 909.49 220.27 L 911.09 219.09 L 915.88 223.39 L 917.47 221.05 L 919.07 220.66 L 920.66 214.8 L 922.26 223.39 L 927.05 218.7 L 931.83 241.37 L 933.43 251.53 L 938.22 252.7 L 939.81 255.83 L 943 258.17 L 944.6 254.26" /></g><g class="points" /><g class="text" /></g><g class="trace scatter tracee5e17a36-1b67-45ab-a3ad-7275ba675cb3" style="opacity: 1; stroke-miterlimit: 2;"><g class="fills" /><g class="errorbars" /><g class="lines"><path class="js-line" style="opacity: 1; fill: none; stroke: rgb(255, 127, 14); stroke-opacity: 1; stroke-width: 2px;" d="M 952.58 274.58 L 954.17 275.36 L 955.77 278.1 L 960.55 279.66 L 962.15 281.22 L 963.75 281.62 L 965.34 277.32 L 966.94 276.54 L 971.72 265.2 L 974.91 264.81 L 976.51 261.3 L 982.89 262.47 L 984.49 267.94 L 986.08 267.55 L 987.68 264.03 L 989.27 264.03 L 994.06 263.25 L 995.66 264.81 L 997.25 264.42 L 1000.44 267.55 L 1016.4 268.33 L 1018 264.03 L 1019.59 264.42 L 1021.19 263.25 L 1022.78 259.34 L 1027.57 259.34 L 1029.16 257.39 L 1032.36 252.31 L 1033.95 252.31 L 1038.74 253.87 L 1040.33 253.48 L 1041.93 255.83 L 1043.53 254.65 L 1049.91 250.75 L 1051.5 246.06 L 1053.1 220.27 L 1054.69 216.75 L 1056.29 194.87 L 1061.08 194.87 L 1062.67 198.38 L 1064.27 189.01 L 1065.86 187.44 L 1067.46 192.13 L 1072.25 195.26 L 1073.84 192.91 L 1075.44 190.96 L 1077.03 201.12 L 1078.63 206.98 L 1083.42 201.12 L 1085.01 203.86 L 1086.61 189.4 L 1088.2 185.1 L 1089.8 190.57 L 1094.58 184.32 L 1096.18 190.96 L 1097.78 189.01 L 1099.37 201.51 L 1105.75 205.81 L 1107.35 229.25 L 1108.95 221.44 L 1110.54 217.92 L 1118.52 212.84 L 1120.11 212.06 L 1123.31 194.87 L 1128.09 193.7 L 1131.28 177.28 L 1132.88 164.78 L 1134.47 174.16 L 1139.26 180.02 L 1140.86 182.75 L 1150.43 162.83 L 1152.03 165.95 L 1153.62 163.61 L 1155.22 173.77 L 1156.81 171.81 L 1161.6 176.11 L 1163.2 169.86 L 1166.39 178.46 L 1167.98 179.63 L 1172.77 181.19 L 1174.36 185.88 L 1177.56 172.99 L 1179.15 173.77 L 1183.94 179.63 L 1185.53 189.01 L 1187.13 193.7 L 1188.73 195.65 L 1190.32 186.66 L 1195.11 179.24 L 1196.7 172.59 L 1198.3 170.25 L 1199.89 169.47 L 1206.28 176.89 L 1207.87 167.91 L 1209.47 171.03 L 1211.06 164 L 1212.66 166.34 L 1217.45 172.2 L 1219.04 183.54 L 1220.64 175.72 L 1222.23 180.41 L 1223.83 183.93 L 1228.62 169.08 L 1230.21 169.08 L 1231.81 169.86 L 1233.4 175.33 L 1235 169.86 L 1239.78 175.72 L 1241.38 180.02 L 1242.98 155.01 L 1244.57 146.8 L 1246.17 138.99 L 1250.95 140.16 L 1252.55 116.72 L 1254.15 114.76 L 1255.74 116.72 L 1257.34 108.9 L 1262.12 105.78 L 1263.72 63.96 L 1265.31 56.15 L 1266.91 30.75 L 1268.51 60.06 L 1273.29 51.85 L 1274.89 76.47 L 1276.48 85.46 L 1278.08 80.77 L 1279.67 97.96 L 1284.46 112.81 L 1286.06 101.09 L 1287.65 101.09 L 1289.25 109.68 L 1290.84 119.45 L 1295.63 109.29 L 1297.23 93.27 L 1298.82 112.03 L 1300.42 107.73 L 1302.01 112.81 L 1306.8 123.75 L 1308.4 122.58 L 1309.99 101.87 L 1311.59 102.65 L 1313.18 91.71 L 1317.97 92.49 L 1319.56 103.04 L 1321.16 87.02 L 1322.76 101.48 L 1324.35 104.6 L 1329.14 101.09 L 1330.73 85.46 L 1332.33 99.91 L 1333.93 103.04 L 1335.52 101.09 L 1340.31 114.37 L 1341.9 109.68 L 1343.5 94.44 L 1345.09 97.18 L 1346.69 91.32 L 1351.48 65.92 L 1353.07 65.92 L 1354.67 64.75 L 1356.26 45.6 L 1362.65 42.47 L 1364.24 56.54 L 1365.84 48.33 L 1367.43 48.72 L 1369.03 65.92 L 1373.82 71.78 L 1375.41 83.89 L 1377.01 87.41 L 1378.6 71.78 L 1380.2 72.56 L 1384.98 71.78 L 1397.75 52.24 L 1399.35 73.73 L 1400.94 115.93 L 1402.54 130.78 L 1407.32 164 L 1408.92 162.83 L 1410.51 154.23 L 1412.11 151.88 L 1413.71 133.91 L 1420.09 127.27 L 1421.68 140.94 L 1423.28 149.93 L 1424.87 150.32 L 1429.66 153.84 L 1431.26 157.36 L 1432.85 147.98 L 1434.45 149.93 L 1436.04 147.59 L 1440.83 148.37 L 1442.43 150.71 L 1444.02 151.1 L 1445.62 155.01 L 1447.21 163.22 L 1452 165.95" /></g><g class="points" /><g class="text" /></g><g class="trace scatter trace7d0862b9-6fd7-4200-b98a-b067b2f24c65" style="opacity: 1; stroke-miterlimit: 2;"><g class="fills" /><g class="errorbars" /><g class="lines"><path class="js-line" style="opacity: 1; fill: none; stroke: rgb(44, 160, 44); stroke-opacity: 1; stroke-width: 2px;" d="M 952.58 254.96 L 954.17 255.46 L 955.77 257.37 L 963.75 261.34 L 965.34 261.11 L 966.94 263.15 L 971.72 266.21 L 974.91 265.27 L 976.51 266.88 L 978.11 267.64 L 982.89 268.2 L 987.68 273.84 L 989.27 274.34 L 994.06 274.18 L 995.66 276.28 L 997.25 279.41 L 998.85 279.28 L 1000.44 278.59 L 1016.4 280.27 L 1019.59 281.73 L 1021.19 283.77 L 1022.78 286.64 L 1027.57 287.56 L 1030.76 288.02 L 1032.36 290.19 L 1033.95 293.38 L 1038.74 293.32 L 1040.33 292.7 L 1041.93 294.44 L 1049.91 298.13 L 1051.5 301.07 L 1054.69 302.67 L 1056.29 302.64 L 1061.08 304.87 L 1062.67 308.13 L 1065.86 307.57 L 1067.46 309.38 L 1073.84 311.09 L 1075.44 313.26 L 1077.03 316.26 L 1078.63 317.31 L 1085.01 318.03 L 1086.61 320.33 L 1088.2 323.65 L 1089.8 323.71 L 1094.58 323.22 L 1096.18 325.1 L 1099.37 326.93 L 1105.75 329.17 L 1107.35 332.24 L 1108.95 333.35 L 1116.92 336.56 L 1118.52 339.94 L 1121.71 339.65 L 1123.31 341.58 L 1129.69 343.55 L 1131.28 345.85 L 1132.88 348.98 L 1134.47 350.16 L 1140.86 351.14 L 1150.43 353.56 L 1152.03 357.01 L 1153.62 357.21 L 1155.22 356.84 L 1156.81 358.84 L 1163.2 360.94 L 1164.79 363.3 L 1166.39 366.5 L 1167.98 367.74 L 1174.36 368.85 L 1175.96 371.34 L 1177.56 374.85 L 1179.15 375.11 L 1183.94 374.81 L 1185.53 376.88 L 1188.73 379.1 L 1190.32 381.53 L 1198.3 387.05 L 1199.89 387.34 L 1206.28 389.89 L 1207.87 393.47 L 1211.06 393.56 L 1212.66 395.69 L 1219.04 398.04 L 1220.64 400.53 L 1222.23 403.86 L 1223.83 405.23 L 1230.21 406.6 L 1231.81 409.22 L 1233.4 412.86 L 1235 413.25 L 1239.78 413.08 L 1241.38 415.27 L 1244.57 417.75 L 1246.17 420.31 L 1255.74 426.63 L 1257.34 429.32 L 1263.72 433.47 L 1265.31 433.37 L 1268.51 437.03 L 1273.29 438.24 L 1278.08 445.81 L 1279.67 446.96 L 1284.46 447.44 L 1286.06 450.19 L 1287.65 453.96 L 1289.25 454.47 L 1290.84 454.43 L 1295.63 456.76 L 1298.82 459.5 L 1300.42 462.18 L 1302.01 465.7 L 1306.8 467.26 L 1309.99 469.02 L 1311.59 471.83 L 1313.18 475.67 L 1317.97 476.25 L 1319.56 476.27 L 1321.16 478.66 L 1324.35 481.53 L 1329.14 484.28 L 1330.73 487.87 L 1332.33 489.49 L 1335.52 491.37 L 1340.31 494.25 L 1341.9 498.15 L 1343.5 498.8 L 1345.09 498.89 L 1346.69 501.34 L 1351.48 502.94 L 1353.07 504.34 L 1356.26 510.8 L 1362.65 512.49 L 1365.84 514.5 L 1367.43 517.45 L 1369.03 521.41 L 1373.82 522.12 L 1375.41 522.27 L 1377.01 524.79 L 1380.2 527.92 L 1384.98 530.8 L 1397.75 534.51 L 1399.35 536.26 L 1402.54 538.41 L 1407.32 541.41 L 1408.92 545.44 L 1410.51 546.22 L 1412.11 546.43 L 1413.71 549.02 L 1418.49 550.74 L 1420.09 552.27 L 1424.87 560.81 L 1429.66 562.28 L 1431.26 563.08 L 1432.85 566.15 L 1434.45 570.25 L 1436.04 571.09 L 1440.83 571.37 L 1442.43 574.01 L 1445.62 577.4 L 1447.21 580.41 L 1452 584.25" /></g><g class="points" /><g class="text" /></g></g></g><g class="overplot" /><path class="xlines-above crisp" style="fill: none;" d="M 0 0" /><path class="ylines-above crisp" style="fill: none;" d="M 0 0" /><g class="overlines-above" /><g class="xaxislayer-above"><g class="xtick"><text style="font-family: &quot;Open Sans&quot;, verdana, arial, sans-serif; font-size: 12px; white-space: pre; fill: rgb(68, 68, 68); fill-opacity: 1;" text-anchor="middle" transform="translate(154.99)" x="0" y="728" data-unformatted="Jul 2017" data-math="N">Jul 2017</text></g><g class="xtick"><text style="font-family: &quot;Open Sans&quot;, verdana, arial, sans-serif; font-size: 12px; white-space: pre; fill: rgb(68, 68, 68); fill-opacity: 1;" text-anchor="middle" transform="translate(301.79)" x="0" y="728" data-unformatted="Oct 2017" data-math="N">Oct 2017</text></g><g class="xtick"><text style="font-family: &quot;Open Sans&quot;, verdana, arial, sans-serif; font-size: 12px; white-space: pre; fill: rgb(68, 68, 68); fill-opacity: 1;" text-anchor="middle" transform="translate(448.58)" x="0" y="728" data-unformatted="Jan 2018" data-math="N">Jan 2018</text></g><g class="xtick"><text style="font-family: &quot;Open Sans&quot;, verdana, arial, sans-serif; font-size: 12px; white-space: pre; fill: rgb(68, 68, 68); fill-opacity: 1;" text-anchor="middle" transform="translate(592.19)" x="0" y="728" data-unformatted="Apr 2018" data-math="N">Apr 2018</text></g><g class="xtick"><text style="font-family: &quot;Open Sans&quot;, verdana, arial, sans-serif; font-size: 12px; white-space: pre; fill: rgb(68, 68, 68); fill-opacity: 1;" text-anchor="middle" transform="translate(737.39)" x="0" y="728" data-unformatted="Jul 2018" data-math="N">Jul 2018</text></g><g class="xtick"><text style="font-family: &quot;Open Sans&quot;, verdana, arial, sans-serif; font-size: 12px; white-space: pre; fill: rgb(68, 68, 68); fill-opacity: 1;" text-anchor="middle" transform="translate(884.18)" x="0" y="728" data-unformatted="Oct 2018" data-math="N">Oct 2018</text></g><g class="xtick"><text style="font-family: &quot;Open Sans&quot;, verdana, arial, sans-serif; font-size: 12px; white-space: pre; fill: rgb(68, 68, 68); fill-opacity: 1;" text-anchor="middle" transform="translate(1030.98)" x="0" y="728" data-unformatted="Jan 2019" data-math="N">Jan 2019</text></g><g class="xtick"><text style="font-family: &quot;Open Sans&quot;, verdana, arial, sans-serif; font-size: 12px; white-space: pre; fill: rgb(68, 68, 68); fill-opacity: 1;" text-anchor="middle" transform="translate(1174.58)" x="0" y="728" data-unformatted="Apr 2019" data-math="N">Apr 2019</text></g><g class="xtick"><text style="font-family: &quot;Open Sans&quot;, verdana, arial, sans-serif; font-size: 12px; white-space: pre; fill: rgb(68, 68, 68); fill-opacity: 1;" text-anchor="middle" transform="translate(1319.78)" x="0" y="728" data-unformatted="Jul 2019" data-math="N">Jul 2019</text></g><g class="xtick"><text style="font-family: &quot;Open Sans&quot;, verdana, arial, sans-serif; font-size: 12px; white-space: pre; fill: rgb(68, 68, 68); fill-opacity: 1;" text-anchor="middle" transform="translate(1466.58)" x="0" y="728" data-unformatted="Oct 2019" data-math="N">Oct 2019</text></g></g><g class="yaxislayer-above"><g class="ytick"><text style="font-family: &quot;Open Sans&quot;, verdana, arial, sans-serif; font-size: 12px; white-space: pre; fill: rgb(68, 68, 68); fill-opacity: 1;" text-anchor="end" transform="translate(0 642.64)" x="79" y="4.2" data-unformatted="2" data-math="N">2</text></g><g class="ytick"><text style="font-family: &quot;Open Sans&quot;, verdana, arial, sans-serif; font-size: 12px; white-space: pre; fill: rgb(68, 68, 68); fill-opacity: 1;" text-anchor="end" transform="translate(0 564.49)" x="79" y="4.2" data-unformatted="4" data-math="N">4</text></g><g class="ytick"><text style="font-family: &quot;Open Sans&quot;, verdana, arial, sans-serif; font-size: 12px; white-space: pre; fill: rgb(68, 68, 68); fill-opacity: 1;" text-anchor="end" transform="translate(0 486.34)" x="79" y="4.2" data-unformatted="6" data-math="N">6</text></g><g class="ytick"><text style="font-family: &quot;Open Sans&quot;, verdana, arial, sans-serif; font-size: 12px; white-space: pre; fill: rgb(68, 68, 68); fill-opacity: 1;" text-anchor="end" transform="translate(0 408.19)" x="79" y="4.2" data-unformatted="8" data-math="N">8</text></g><g class="ytick"><text style="font-family: &quot;Open Sans&quot;, verdana, arial, sans-serif; font-size: 12px; white-space: pre; fill: rgb(68, 68, 68); fill-opacity: 1;" text-anchor="end" transform="translate(0 330.04)" x="79" y="4.2" data-unformatted="10" data-math="N">10</text></g><g class="ytick"><text style="font-family: &quot;Open Sans&quot;, verdana, arial, sans-serif; font-size: 12px; white-space: pre; fill: rgb(68, 68, 68); fill-opacity: 1;" text-anchor="end" transform="translate(0 251.88)" x="79" y="4.2" data-unformatted="12" data-math="N">12</text></g><g class="ytick"><text style="font-family: &quot;Open Sans&quot;, verdana, arial, sans-serif; font-size: 12px; white-space: pre; fill: rgb(68, 68, 68); fill-opacity: 1;" text-anchor="end" transform="translate(0 173.73)" x="79" y="4.2" data-unformatted="14" data-math="N">14</text></g></g><g class="overaxes-above" /></g></g><g class="polarlayer" /><g class="ternarylayer" /><g class="geolayer" /><g class="pielayer" /><g class="glimages" /></svg>