<svg xmlns="http://www.w3.org/2000/svg" class="main-svg" style="background: rgb(255, 255, 255);" width="1653.57" height="795.3"><defs id="defs-24f3a8"><g class="clips"><clipPath class="plotclip" id="clip24f3a8xyplot"><rect width="1428" height="615" /></clipPath><clipPath class="axesclip" id="clip24f3a8x"><rect x="80" y="0" width="1428" height="795.3" /></clipPath><clipPath class="axesclip" id="clip24f3a8y"><rect x="0" y="100" width="1653.57" height="615" /></clipPath><clipPath class="axesclip" id="clip24f3a8xy"><rect x="80" y="100" width="1428" height="615" /></clipPath></g><g class="gradients" /></defs><g class="bglayer" /><g class="draglayer cursor-crosshair"><g class="xy"><rect class="nsewdrag drag" style="fill: transparent; pointer-events: all; stroke-width: 0;" x="80" y="100" width="1428" height="615" data-subplot="xy" /><rect class="nwdrag drag cursor-nw-resize" style="fill: transparent; pointer-events: all; stroke-width: 0;" x="60" y="80" width="20" height="20" data-subplot="xy" /><rect class="nedrag drag cursor-ne-resize" style="fill: transparent; pointer-events: all; stroke-width: 0;" x="1508" y="80" width="20" height="20" data-subplot="xy" /><rect class="swdrag drag cursor-sw-resize" style="fill: transparent; pointer-events: all; stroke-width: 0;" x="60" y="715" width="20" height="20" data-subplot="xy" /><rect class="sedrag drag cursor-se-resize" style="fill: transparent; pointer-events: all; stroke-width: 0;" x="1508" y="715" width="20" height="20" data-subplot="xy" /><rect class="ewdrag drag cursor-ew-resize" style="fill: transparent; pointer-events: all; stroke-width: 0;" x="222.8" y="715.5" width="1142.4" height="20" data-subplot="xy" /><rect class="wdrag drag cursor-w-resize" style="fill: transparent; pointer-events: all; stroke-width: 0;" x="80" y="715.5" width="142.8" height="20" data-subplot="xy" /><rect class="edrag drag cursor-e-resize" style="fill: transparent; pointer-events: all; stroke-width: 0;" x="1365.2" y="715.5" width="142.8" height="20" data-subplot="xy" /><rect class="nsdrag drag cursor-ns-resize" style="fill: transparent; pointer-events: all; stroke-width: 0;" x="59.5" y="161.5" width="20" height="492" data-subplot="xy" /><rect class="sdrag drag cursor-s-resize" style="fill: transparent; pointer-events: all; stroke-width: 0;" x="59.5" y="653.5" width="20" height="61.5" data-subplot="xy" /><rect class="ndrag drag cursor-n-resize" style="fill: transparent; pointer-events: all; stroke-width: 0;" x="59.5" y="100" width="20" height="61.5" data-subplot="xy" /></g></g><g class="layer-below"><g class="imagelayer" /><g class="shapelayer" /></g><g class="cartesianlayer"><g class="subplot xy"><g class="layer-subplot"><g class="shapelayer" /><g class="imagelayer" /></g><g class="gridlayer"><g class="x"><path class="xgrid crisp" style="stroke: rgb(238, 238, 238); stroke-opacity: 1; stroke-width: 1px;" transform="translate(154)" d="M 0 100 v 615" /><path class="xgrid crisp" style="stroke: rgb(238, 238, 238); stroke-opacity: 1; stroke-width: 1px;" transform="translate(298.84)" d="M 0 100 v 615" /><path class="xgrid crisp" style="stroke: rgb(238, 238, 238); stroke-opacity: 1; stroke-width: 1px;" transform="translate(443.69)" d="M 0 100 v 615" /><path class="xgrid crisp" style="stroke: rgb(238, 238, 238); stroke-opacity: 1; stroke-width: 1px;" transform="translate(585.39)" d="M 0 100 v 615" /><path class="xgrid crisp" style="stroke: rgb(238, 238, 238); stroke-opacity: 1; stroke-width: 1px;" transform="translate(728.66)" d="M 0 100 v 615" /><path class="xgrid crisp" style="stroke: rgb(238, 238, 238); stroke-opacity: 1; stroke-width: 1px;" transform="translate(873.51)" d="M 0 100 v 615" /><path class="xgrid crisp" style="stroke: rgb(238, 238, 238); stroke-opacity: 1; stroke-width: 1px;" transform="translate(1018.36)" d="M 0 100 v 615" /><path class="xgrid crisp" style="stroke: rgb(238, 238, 238); stroke-opacity: 1; stroke-width: 1px;" transform="translate(1160.05)" d="M 0 100 v 615" /><path class="xgrid crisp" style="stroke: rgb(238, 238, 238); stroke-opacity: 1; stroke-width: 1px;" transform="translate(1303.33)" d="M 0 100 v 615" /><path class="xgrid crisp" style="stroke: rgb(238, 238, 238); stroke-opacity: 1; stroke-width: 1px;" transform="translate(1448.17)" d="M 0 100 v 615" /></g><g class="y"><path class="ygrid crisp" style="stroke: rgb(238, 238, 238); stroke-opacity: 1; stroke-width: 1px;" transform="translate(0 658.57)" d="M 80 0 h 1428" /><path class="ygrid crisp" style="stroke: rgb(238, 238, 238); stroke-opacity: 1; stroke-width: 1px;" transform="translate(0 594.35)" d="M 80 0 h 1428" /><path class="ygrid crisp" style="stroke: rgb(238, 238, 238); stroke-opacity: 1; stroke-width: 1px;" transform="translate(0 530.14)" d="M 80 0 h 1428" /><path class="ygrid crisp" style="stroke: rgb(238, 238, 238); stroke-opacity: 1; stroke-width: 1px;" transform="translate(0 465.93)" d="M 80 0 h 1428" /><path class="ygrid crisp" style="stroke: rgb(238, 238, 238); stroke-opacity: 1; stroke-width: 1px;" transform="translate(0 401.72)" d="M 80 0 h 1428" /><path class="ygrid crisp" style="stroke: rgb(238, 238, 238); stroke-opacity: 1; stroke-width: 1px;" transform="translate(0 337.51)" d="M 80 0 h 1428" /><path class="ygrid crisp" style="stroke: rgb(238, 238, 238); stroke-opacity: 1; stroke-width: 1px;" transform="translate(0 273.3)" d="M 80 0 h 1428" /><path class="ygrid crisp" style="stroke: rgb(238, 238, 238); stroke-opacity: 1; stroke-width: 1px;" transform="translate(0 209.09)" d="M 80 0 h 1428" /><path class="ygrid crisp" style="stroke: rgb(238, 238, 238); stroke-opacity: 1; stroke-width: 1px;" transform="translate(0 144.88)" d="M 80 0 h 1428" /></g></g><g class="zerolinelayer" /><path class="xlines-below" /><path class="ylines-below" /><g class="overlines-below" /><g class="xaxislayer-below" /><g class="yaxislayer-below" /><g class="overaxes-below" /><g class="plot" clip-path="url(&quot;#clip24f3a8xyplot&quot;)" transform="translate(80 100)"><g class="scatterlayer mlayer"><g class="trace scatter trace45cb93f2-921f-4ff0-b127-e1fd7d56bfe7" style="opacity: 1; stroke-miterlimit: 2;"><g class="fills" /><g class="errorbars" /><g class="lines"><path class="js-line" style="opacity: 1; fill: none; stroke: rgb(31, 119, 180); stroke-opacity: 1; stroke-width: 2px;" d="M 0 567.56 L 1.57 568.84 L 3.15 573.33 L 6.3 578.47 L 11.02 579.11 L 12.6 572.05 L 14.17 570.77 L 15.74 552.14 L 17.32 552.14 L 23.62 551.5 L 25.19 545.72 L 28.34 547.65 L 33.06 556.64 L 34.64 556 L 36.21 550.22 L 37.79 550.22 L 39.36 548.93 L 44.08 551.5 L 45.66 550.86 L 50.38 557.28 L 55.1 550.22 L 56.68 550.86 L 58.25 548.93 L 59.83 542.51 L 61.4 542.51 L 66.13 539.3 L 67.7 535.45 L 69.27 530.95 L 70.85 530.95 L 72.42 533.52 L 77.15 532.88 L 78.72 536.73 L 80.3 534.81 L 81.87 532.88 L 83.44 528.39 L 88.17 520.68 L 89.74 478.3 L 91.32 472.52 L 92.89 436.56 L 94.47 436.56 L 99.19 442.34 L 100.76 426.93 L 102.34 424.36 L 105.49 437.21 L 110.21 433.35 L 111.78 430.14 L 113.36 446.84 L 114.93 456.47 L 116.51 446.84 L 121.23 451.33 L 122.8 427.57 L 124.38 420.51 L 125.95 429.5 L 127.53 419.23 L 132.25 430.14 L 133.83 426.93 L 135.4 447.48 L 136.97 454.54 L 138.55 493.07 L 144.85 474.45 L 146.42 472.52 L 148 467.39 L 149.57 466.1 L 154.29 464.82 L 155.87 452.62 L 157.44 436.56 L 159.02 434.64 L 160.59 423.08 L 165.31 407.67 L 166.89 387.12 L 168.46 402.53 L 170.04 412.16 L 171.61 416.66 L 176.34 383.91 L 177.91 389.05 L 179.48 385.2 L 181.06 401.89 L 182.63 398.68 L 187.36 405.74 L 188.93 395.47 L 190.5 402.53 L 192.08 409.6 L 193.65 411.52 L 198.38 414.09 L 199.95 421.8 L 203.1 400.61 L 204.67 401.89 L 209.4 411.52 L 210.97 426.93 L 212.55 434.64 L 214.12 437.85 L 215.7 423.08 L 231.44 410.88 L 233.01 399.96 L 234.59 396.11 L 236.16 394.83 L 237.74 407.03 L 242.46 392.26 L 244.04 397.4 L 245.61 385.84 L 247.18 389.69 L 248.76 399.32 L 253.48 417.94 L 255.06 405.1 L 256.63 412.81 L 258.21 418.59 L 259.78 394.19 L 264.5 394.19 L 266.08 395.47 L 267.65 404.46 L 269.23 395.47 L 270.8 405.1 L 275.52 412.16 L 277.1 371.07 L 278.67 357.58 L 280.25 344.74 L 281.82 346.67 L 286.54 308.14 L 288.12 304.93 L 289.69 308.14 L 291.27 295.3 L 292.84 290.16 L 297.57 221.46 L 299.14 208.61 L 300.71 166.88 L 302.29 215.04 L 303.86 201.55 L 310.16 256.77 L 311.74 249.07 L 314.88 301.72 L 319.61 282.46 L 321.18 282.46 L 322.76 296.58 L 324.33 312.64 L 325.91 295.94 L 330.63 269.62 L 332.2 300.44 L 333.78 293.37 L 335.35 301.72 L 336.93 319.7 L 341.65 317.77 L 343.22 283.74 L 344.8 285.03 L 346.37 267.05 L 347.95 268.33 L 352.67 285.67 L 354.24 259.34 L 355.82 283.1 L 357.39 288.24 L 365.27 256.77 L 366.84 280.53 L 368.41 285.67 L 369.99 282.46 L 374.71 304.29 L 376.29 296.58 L 377.86 271.54 L 379.44 276.04 L 381.01 266.4 L 385.73 224.67 L 387.31 224.67 L 388.88 222.74 L 390.46 191.28 L 392.03 186.14 L 396.75 209.26 L 398.33 195.77 L 399.9 196.41 L 401.48 224.67 L 403.05 234.3 L 407.78 254.2 L 409.35 259.98 L 410.92 234.3 L 412.5 235.58 L 414.07 234.3 L 418.8 202.19 L 420.37 237.51 L 421.94 306.86 L 423.52 331.26 L 425.09 385.84 L 429.82 383.91 L 431.39 369.78 L 432.97 365.93 L 445.56 336.4 L 447.14 326.76 L 451.86 325.48 L 453.43 347.95 L 455.01 362.72 L 456.58 363.36 L 458.16 369.14 L 462.88 374.92 L 464.45 359.51 L 466.03 362.72 L 467.6 358.87 L 469.18 360.15 L 475.48 364.65 L 477.05 371.07 L 478.62 384.55 L 480.2 389.05 L 484.92 376.85 L 486.5 377.49 L 488.07 372.35 L 489.64 387.76 L 491.22 408.31 L 495.94 434.64 L 497.52 434 L 499.09 437.21 L 500.67 426.93 L 502.24 436.56 L 506.96 448.76 L 508.54 458.4 L 510.11 438.49 L 517.98 428.86 L 521.13 376.85 L 522.71 396.75 L 524.28 393.54 L 529.01 423.72 L 530.58 416.66 L 532.15 398.04 L 533.73 399.96 L 535.3 407.67 L 540.03 393.54 L 541.6 374.92 L 544.75 403.17 L 546.32 439.77 L 554.2 437.85 L 555.77 446.2 L 557.35 450.69 L 562.07 442.34 L 563.64 429.5 L 565.22 432.07 L 566.79 429.5 L 568.37 429.5 L 573.09 418.59 L 574.66 422.44 L 576.24 436.56 L 577.81 441.7 L 579.39 432.71 L 584.11 433.35 L 585.68 439.13 L 587.26 452.62 L 590.41 456.47 L 595.13 456.47 L 598.28 489.22 L 599.85 482.8 L 601.43 482.15 L 606.15 477.02 L 607.73 477.66 L 609.3 485.36 L 610.88 470.6 L 612.45 486.65 L 617.17 491.79 L 618.75 490.5 L 620.32 497.56 L 621.9 489.86 L 623.47 483.44 L 629.77 502.7 L 631.34 500.13 L 632.92 503.34 L 634.49 503.99 L 639.21 529.03 L 640.79 535.45 L 642.36 552.79 L 643.94 563.7 L 645.51 552.79 L 650.24 583.61 L 651.81 579.76 L 653.38 583.61 L 654.96 584.25 L 656.53 580.4 L 661.26 556.64 L 662.83 559.85 L 664.41 572.69 L 665.98 566.27 L 667.55 566.27 L 672.28 575.9 L 673.85 576.54 L 675.43 577.83 L 677 575.9 L 678.58 551.5 L 683.3 531.6 L 686.45 534.17 L 688.02 542.51 L 689.6 542.51 L 694.32 533.52 L 695.89 531.6 L 697.47 548.93 L 699.04 562.42 L 700.62 564.34 L 705.34 562.42 L 706.92 547.65 L 708.49 555.35 L 710.06 539.94 L 717.94 558.57 L 719.51 572.05 L 721.08 572.69 L 722.66 570.77 L 727.38 558.57 L 728.96 543.8 L 732.11 535.45 L 733.68 492.43 L 738.4 466.74 L 739.98 475.73 L 741.55 477.02 L 743.13 486.65 L 744.7 486.01 L 749.42 482.15 L 751 466.74 L 752.57 491.14 L 754.15 496.28 L 755.72 493.71 L 760.45 502.06 L 762.02 500.13 L 763.59 502.06 L 765.17 496.92 L 766.74 504.63 L 771.47 514.26 L 773.04 489.22 L 774.62 478.94 L 776.19 479.59 L 777.76 451.33 L 784.06 459.04 L 785.64 448.76 L 787.21 446.84 L 788.79 426.93 L 804.53 465.46 L 806.1 458.4 L 807.68 465.46 L 809.25 503.34 L 810.83 475.09 L 815.55 487.29 L 817.12 470.6 L 818.7 473.16 L 820.27 488.58 L 821.85 445.55 L 826.57 420.51 L 828.15 440.42 L 831.29 411.52 L 832.87 418.59 L 837.59 446.2 L 839.17 436.56 L 840.74 435.92 L 842.32 441.06 L 843.89 424.36 L 848.61 435.28 L 850.19 440.42 L 851.76 442.34 L 853.34 437.21 L 854.91 459.04 L 859.63 458.4 L 861.21 459.68 L 862.78 466.1 L 864.36 454.54 L 865.93 457.75 L 870.65 439.77 L 872.23 457.75 L 873.8 455.19 L 875.38 459.04 L 876.95 473.81 L 881.68 472.52 L 883.25 482.8 L 884.82 476.38 L 886.4 481.51 L 887.97 471.24 L 892.7 456.47 L 894.27 456.47 L 895.85 465.46 L 897.42 478.3 L 898.99 476.38 L 903.72 483.44 L 905.29 479.59 L 906.87 478.94 L 908.44 469.31 L 910.02 483.44 L 914.74 475.73 L 919.46 512.98 L 921.04 529.67 L 925.76 531.6 L 927.33 536.73 L 930.48 540.59 L 932.06 534.17" /></g><g class="points" /><g class="text" /></g><g class="trace scatter traceadc6d619-c9d7-4583-bd71-037366b52a59" style="opacity: 1; stroke-miterlimit: 2;"><g class="fills" /><g class="errorbars" /><g class="lines"><path class="js-line" style="opacity: 1; fill: none; stroke: rgb(255, 127, 14); stroke-opacity: 1; stroke-width: 2px;" d="M 932.06 546.37 L 939.93 540.59 L 941.5 510.41 L 943.08 511.05 L 947.8 516.19 L 950.95 487.93 L 952.52 481.51 L 954.1 487.29 L 958.82 478.94 L 960.4 463.53 L 961.97 478.3 L 963.55 466.74 L 965.12 472.52 L 969.84 476.38 L 971.42 471.88 L 972.99 460.96 L 974.57 430.14 L 976.14 434 L 980.86 430.14 L 982.44 433.35 L 984.01 423.72 L 985.59 417.3 L 987.16 416.66 L 1002.91 417.94 L 1004.48 405.74 L 1006.06 414.09 L 1007.63 433.35 L 1009.2 407.03 L 1013.93 412.81 L 1015.5 403.82 L 1017.08 407.03 L 1018.65 395.47 L 1020.22 330.62 L 1024.95 353.09 L 1026.52 340.25 L 1028.1 342.82 L 1029.67 317.13 L 1031.25 302.36 L 1035.97 297.87 L 1037.54 296.58 L 1039.12 318.42 L 1040.69 346.67 L 1042.27 345.38 L 1048.56 342.17 L 1050.14 338.32 L 1051.71 333.83 L 1053.29 307.5 L 1061.16 321.63 L 1062.73 328.05 L 1064.31 358.87 L 1069.03 359.51 L 1070.61 341.53 L 1072.18 351.81 L 1075.33 290.16 L 1080.05 278.6 L 1081.63 273.47 L 1083.2 246.5 L 1084.78 240.08 L 1091.07 249.71 L 1092.65 254.85 L 1094.22 267.05 L 1095.8 274.75 L 1097.37 257.42 L 1102.09 200.27 L 1103.67 215.04 L 1105.24 215.68 L 1106.82 190.64 L 1108.39 227.88 L 1113.12 233.02 L 1114.69 209.26 L 1116.26 229.16 L 1117.84 250.99 L 1119.41 231.09 L 1124.14 247.14 L 1125.71 310.07 L 1135.16 304.93 L 1136.73 327.41 L 1138.31 355.66 L 1139.88 322.27 L 1141.46 346.67 L 1146.18 334.47 L 1147.75 306.86 L 1149.33 311.35 L 1150.9 337.68 L 1152.48 341.53 L 1157.2 329.97 L 1158.77 340.25 L 1160.35 347.31 L 1161.92 343.46 L 1163.5 342.17 L 1168.22 334.47 L 1169.79 340.25 L 1171.37 351.81 L 1172.94 354.37 L 1174.52 372.35 L 1179.24 375.56 L 1180.82 367.86 L 1182.39 371.07 L 1183.96 344.1 L 1190.26 324.19 L 1191.84 329.33 L 1193.41 328.05 L 1194.99 334.47 L 1196.56 322.91 L 1201.28 314.56 L 1202.86 297.23 L 1204.43 250.35 L 1206.01 260.63 L 1207.58 257.42 L 1213.88 277.96 L 1215.45 256.13 L 1217.03 251.64 L 1218.6 242 L 1223.33 225.95 L 1224.9 236.87 L 1226.47 238.15 L 1228.05 242.65 L 1229.62 263.84 L 1234.35 263.84 L 1237.5 267.05 L 1239.07 229.8 L 1240.64 237.51 L 1245.37 253.56 L 1246.94 257.42 L 1248.52 258.7 L 1250.09 238.15 L 1251.66 247.14 L 1256.39 252.92 L 1257.96 245.22 L 1259.54 224.67 L 1261.11 222.74 L 1262.69 218.89 L 1267.41 213.75 L 1268.98 229.16 L 1270.56 231.09 L 1273.71 279.25 L 1278.43 277.96 L 1280 267.05 L 1281.58 213.11 L 1283.15 204.12 L 1284.73 165.59 L 1289.45 180.36 L 1291.03 175.23 L 1294.17 179.72 L 1295.75 178.44 L 1300.47 173.94 L 1302.05 208.61 L 1303.62 217.6 L 1305.2 195.77 L 1306.77 221.46 L 1311.49 217.6 L 1313.07 220.17 L 1314.64 229.16 L 1316.22 227.24 L 1317.79 208.61 L 1322.51 218.25 L 1324.09 209.26 L 1325.66 200.27 L 1327.24 185.5 L 1328.81 193.2 L 1333.53 202.19 L 1335.11 201.55 L 1336.68 193.85 L 1338.26 208.61 L 1344.56 222.1 L 1346.13 211.18 L 1347.7 183.57 L 1349.28 151.47 L 1350.85 148.9 L 1355.58 161.74 L 1357.15 125.14 L 1358.73 127.71 L 1360.3 115.51 L 1361.87 135.41 L 1366.6 96.25 L 1379.19 93.03 L 1380.77 93.68 L 1383.92 30.75 L 1388.64 33.32 L 1390.21 58.36 L 1391.79 64.14 L 1393.36 76.34 L 1394.94 51.94 L 1399.66 82.12 L 1401.23 80.19 L 1402.81 53.22 L 1404.38 52.58 L 1405.96 66.71 L 1410.68 50.66 L 1412.26 81.48 L 1413.83 92.39 L 1415.4 53.87 L 1416.98 50.01 L 1421.7 35.24 L 1423.28 47.44 L 1424.85 51.94 L 1426.43 67.35 L 1428 91.11" /></g><g class="points" /><g class="text" /></g><g class="trace scatter trace7bb6dc17-f393-43b3-91ea-85c1135b87c1" style="opacity: 1; stroke-miterlimit: 2;"><g class="fills" /><g class="errorbars" /><g class="lines"><path class="js-line" style="opacity: 1; fill: none; stroke: rgb(44, 160, 44); stroke-opacity: 1; stroke-width: 2px;" d="M 932.06 509.13 L 939.93 513.96 L 941.5 517.87 L 943.08 518.97 L 947.8 518.21 L 949.38 516.61 L 950.95 513.42 L 954.1 503.02 L 958.82 497.4 L 965.12 474.95 L 969.84 470.84 L 976.14 458.71 L 980.86 453.52 L 987.16 432.13 L 1002.91 427.09 L 1007.63 414.59 L 1009.2 413.16 L 1013.93 411.3 L 1015.5 409.79 L 1020.22 403.91 L 1024.95 396.62 L 1031.25 360.63 L 1035.97 349.76 L 1040.69 321.33 L 1042.27 318.65 L 1046.99 318.85 L 1048.56 320.68 L 1053.29 328.08 L 1058.01 327.61 L 1064.31 322.36 L 1069.03 324.51 L 1073.76 334.48 L 1075.33 334.58 L 1080.05 331.07 L 1081.63 324.69 L 1084.78 305.98 L 1091.07 294.19 L 1094.22 274.49 L 1095.8 268.49 L 1097.37 265.36 L 1102.09 262.86 L 1108.39 234.93 L 1113.12 229.92 L 1116.26 224.58 L 1117.84 223.71 L 1119.41 225.74 L 1124.14 227.6 L 1125.71 230.68 L 1135.16 239.26 L 1138.31 262.21 L 1139.88 277.18 L 1141.46 289.6 L 1146.18 301.62 L 1149.33 316.65 L 1150.9 319.38 L 1152.48 322.23 L 1157.2 325.08 L 1163.5 332.84 L 1168.22 334.44 L 1172.94 336.82 L 1174.52 338.55 L 1179.24 341.84 L 1180.82 346.04 L 1183.96 353.55 L 1190.26 354.7 L 1191.84 352.79 L 1193.41 349.52 L 1196.56 341.82 L 1201.28 337.75 L 1204.43 327.3 L 1206.01 317.52 L 1207.58 307 L 1212.3 296.52 L 1215.45 282.31 L 1217.03 276.55 L 1218.6 271.15 L 1223.33 265.64 L 1228.05 249.41 L 1229.62 246.39 L 1234.35 246.19 L 1235.92 247.61 L 1239.07 253.12 L 1240.64 253.2 L 1248.52 252.44 L 1250.09 253.28 L 1251.66 252.66 L 1256.39 252.05 L 1259.54 251.35 L 1261.11 249.01 L 1262.69 245.7 L 1267.41 241.74 L 1270.56 234.21 L 1272.13 232.28 L 1273.71 233.14 L 1278.43 237.55 L 1281.58 249.14 L 1283.15 249.76 L 1289.45 238.73 L 1291.03 229.51 L 1295.75 203.19 L 1300.47 197.03 L 1302.05 191.93 L 1303.62 190.87 L 1306.77 194.71 L 1311.49 198.63 L 1317.79 216.72 L 1322.51 219.06 L 1324.09 220.82 L 1325.66 221.23 L 1327.24 220.09 L 1328.81 216.93 L 1333.53 213.5 L 1335.11 210.88 L 1338.26 206.78 L 1344.56 206.12 L 1347.7 208.79 L 1349.28 207.92 L 1350.85 203.25 L 1355.58 196.61 L 1358.73 181.69 L 1360.3 172.78 L 1361.87 163.43 L 1366.6 156.4 L 1379.19 147.91 L 1380.77 139.34 L 1383.92 121.72 L 1388.64 109.6 L 1391.79 88.84 L 1393.36 83.14 L 1394.94 80.84 L 1399.66 78.57 L 1401.23 79.43 L 1402.81 81.58 L 1404.38 82 L 1405.96 81.57 L 1410.68 81.84 L 1412.26 80.96 L 1413.83 82.31 L 1415.4 85.5 L 1416.98 86.07 L 1421.7 85.09 L 1426.43 76.67 L 1428 76.23" /></g><g class="points" /><g class="text" /></g></g></g><g class="overplot" /><path class="xlines-above crisp" style="fill: none;" d="M 0 0" /><path class="ylines-above crisp" style="fill: none;" d="M 0 0" /><g class="overlines-above" /><g class="xaxislayer-above"><g class="xtick"><text style="font-family: &quot;Open Sans&quot;, verdana, arial, sans-serif; font-size: 12px; white-space: pre; fill: rgb(68, 68, 68); fill-opacity: 1;" text-anchor="middle" transform="translate(154)" x="0" y="728" data-unformatted="Jul 2017" data-math="N">Jul 2017</text></g><g class="xtick"><text style="font-family: &quot;Open Sans&quot;, verdana, arial, sans-serif; font-size: 12px; white-space: pre; fill: rgb(68, 68, 68); fill-opacity: 1;" text-anchor="middle" transform="translate(298.84)" x="0" y="728" data-unformatted="Oct 2017" data-math="N">Oct 2017</text></g><g class="xtick"><text style="font-family: &quot;Open Sans&quot;, verdana, arial, sans-serif; font-size: 12px; white-space: pre; fill: rgb(68, 68, 68); fill-opacity: 1;" text-anchor="middle" transform="translate(443.69)" x="0" y="728" data-unformatted="Jan 2018" data-math="N">Jan 2018</text></g><g class="xtick"><text style="font-family: &quot;Open Sans&quot;, verdana, arial, sans-serif; font-size: 12px; white-space: pre; fill: rgb(68, 68, 68); fill-opacity: 1;" text-anchor="middle" transform="translate(585.39)" x="0" y="728" data-unformatted="Apr 2018" data-math="N">Apr 2018</text></g><g class="xtick"><text style="font-family: &quot;Open Sans&quot;, verdana, arial, sans-serif; font-size: 12px; white-space: pre; fill: rgb(68, 68, 68); fill-opacity: 1;" text-anchor="middle" transform="translate(728.66)" x="0" y="728" data-unformatted="Jul 2018" data-math="N">Jul 2018</text></g><g class="xtick"><text style="font-family: &quot;Open Sans&quot;, verdana, arial, sans-serif; font-size: 12px; white-space: pre; fill: rgb(68, 68, 68); fill-opacity: 1;" text-anchor="middle" transform="translate(873.51)" x="0" y="728" data-unformatted="Oct 2018" data-math="N">Oct 2018</text></g><g class="xtick"><text style="font-family: &quot;Open Sans&quot;, verdana, arial, sans-serif; font-size: 12px; white-space: pre; fill: rgb(68, 68, 68); fill-opacity: 1;" text-anchor="middle" transform="translate(1018.36)" x="0" y="728" data-unformatted="Jan 2019" data-math="N">Jan 2019</text></g><g class="xtick"><text style="font-family: &quot;Open Sans&quot;, verdana, arial, sans-serif; font-size: 12px; white-space: pre; fill: rgb(68, 68, 68); fill-opacity: 1;" text-anchor="middle" transform="translate(1160.05)" x="0" y="728" data-unformatted="Apr 2019" data-math="N">Apr 2019</text></g><g class="xtick"><text style="font-family: &quot;Open Sans&quot;, verdana, arial, sans-serif; font-size: 12px; white-space: pre; fill: rgb(68, 68, 68); fill-opacity: 1;" text-anchor="middle" transform="translate(1303.33)" x="0" y="728" data-unformatted="Jul 2019" data-math="N">Jul 2019</text></g><g class="xtick"><text style="font-family: &quot;Open Sans&quot;, verdana, arial, sans-serif; font-size: 12px; white-space: pre; fill: rgb(68, 68, 68); fill-opacity: 1;" text-anchor="middle" transform="translate(1448.17)" x="0" y="728" data-unformatted="Oct 2019" data-math="N">Oct 2019</text></g></g><g class="yaxislayer-above"><g class="ytick"><text style="font-family: &quot;Open Sans&quot;, verdana, arial, sans-serif; font-size: 12px; white-space: pre; fill: rgb(68, 68, 68); fill-opacity: 1;" text-anchor="end" transform="translate(0 658.57)" x="79" y="4.2" data-unformatted="9" data-math="N">9</text></g><g class="ytick"><text style="font-family: &quot;Open Sans&quot;, verdana, arial, sans-serif; font-size: 12px; white-space: pre; fill: rgb(68, 68, 68); fill-opacity: 1;" text-anchor="end" transform="translate(0 594.35)" x="79" y="4.2" data-unformatted="10" data-math="N">10</text></g><g class="ytick"><text style="font-family: &quot;Open Sans&quot;, verdana, arial, sans-serif; font-size: 12px; white-space: pre; fill: rgb(68, 68, 68); fill-opacity: 1;" text-anchor="end" transform="translate(0 530.14)" x="79" y="4.2" data-unformatted="11" data-math="N">11</text></g><g class="ytick"><text style="font-family: &quot;Open Sans&quot;, verdana, arial, sans-serif; font-size: 12px; white-space: pre; fill: rgb(68, 68, 68); fill-opacity: 1;" text-anchor="end" transform="translate(0 465.93)" x="79" y="4.2" data-unformatted="12" data-math="N">12</text></g><g class="ytick"><text style="font-family: &quot;Open Sans&quot;, verdana, arial, sans-serif; font-size: 12px; white-space: pre; fill: rgb(68, 68, 68); fill-opacity: 1;" text-anchor="end" transform="translate(0 401.72)" x="79" y="4.2" data-unformatted="13" data-math="N">13</text></g><g class="ytick"><text style="font-family: &quot;Open Sans&quot;, verdana, arial, sans-serif; font-size: 12px; white-space: pre; fill: rgb(68, 68, 68); fill-opacity: 1;" text-anchor="end" transform="translate(0 337.51)" x="79" y="4.2" data-unformatted="14" data-math="N">14</text></g><g class="ytick"><text style="font-family: &quot;Open Sans&quot;, verdana, arial, sans-serif; font-size: 12px; white-space: pre; fill: rgb(68, 68, 68); fill-opacity: 1;" text-anchor="end" transform="translate(0 273.3)" x="79" y="4.2" data-unformatted="15" data-math="N">15</text></g><g class="ytick"><text style="font-family: &quot;Open Sans&quot;, verdana, arial, sans-serif; font-size: 12px; white-space: pre; fill: rgb(68, 68, 68); fill-opacity: 1;" text-anchor="end" transform="translate(0 209.09)" x="79" y="4.2" data-unformatted="16" data-math="N">16</text></g><g class="ytick"><text style="font-family: &quot;Open Sans&quot;, verdana, arial, sans-serif; font-size: 12px; white-space: pre; fill: rgb(68, 68, 68); fill-opacity: 1;" text-anchor="end" transform="translate(0 144.88)" x="79" y="4.2" data-unformatted="17" data-math="N">17</text></g></g><g class="overaxes-above" /></g></g><g class="polarlayer" /><g class="ternarylayer" /><g class="geolayer" /><g class="pielayer" /><g class="glimages" /></svg>