<svg xmlns="http://www.w3.org/2000/svg" class="main-svg" style="background: rgb(255, 255, 255);" width="1653.57" height="795.3"><defs id="defs-b2d48e"><g class="clips"><clipPath class="plotclip" id="clipb2d48exyplot"><rect width="1452" height="615" /></clipPath><clipPath class="axesclip" id="clipb2d48ex"><rect x="80" y="0" width="1452" height="795.3" /></clipPath><clipPath class="axesclip" id="clipb2d48ey"><rect x="0" y="100" width="1653.57" height="615" /></clipPath><clipPath class="axesclip" id="clipb2d48exy"><rect x="80" y="100" width="1452" height="615" /></clipPath></g><g class="gradients" /></defs><g class="bglayer" /><g class="draglayer cursor-crosshair"><g class="xy"><rect class="nsewdrag drag" style="fill: transparent; pointer-events: all; stroke-width: 0;" x="80" y="100" width="1452" height="615" data-subplot="xy" /><rect class="nwdrag drag cursor-nw-resize" style="fill: transparent; pointer-events: all; stroke-width: 0;" x="60" y="80" width="20" height="20" data-subplot="xy" /><rect class="nedrag drag cursor-ne-resize" style="fill: transparent; pointer-events: all; stroke-width: 0;" x="1532" y="80" width="20" height="20" data-subplot="xy" /><rect class="swdrag drag cursor-sw-resize" style="fill: transparent; pointer-events: all; stroke-width: 0;" x="60" y="715" width="20" height="20" data-subplot="xy" /><rect class="sedrag drag cursor-se-resize" style="fill: transparent; pointer-events: all; stroke-width: 0;" x="1532" y="715" width="20" height="20" data-subplot="xy" /><rect class="ewdrag drag cursor-ew-resize" style="fill: transparent; pointer-events: all; stroke-width: 0;" x="225.2" y="715.5" width="1161.6" height="20" data-subplot="xy" /><rect class="wdrag drag cursor-w-resize" style="fill: transparent; pointer-events: all; stroke-width: 0;" x="80" y="715.5" width="145.2" height="20" data-subplot="xy" /><rect class="edrag drag cursor-e-resize" style="fill: transparent; pointer-events: all; stroke-width: 0;" x="1386.8" y="715.5" width="145.2" height="20" data-subplot="xy" /><rect class="nsdrag drag cursor-ns-resize" style="fill: transparent; pointer-events: all; stroke-width: 0;" x="59.5" y="161.5" width="20" height="492" data-subplot="xy" /><rect class="sdrag drag cursor-s-resize" style="fill: transparent; pointer-events: all; stroke-width: 0;" x="59.5" y="653.5" width="20" height="61.5" data-subplot="xy" /><rect class="ndrag drag cursor-n-resize" style="fill: transparent; pointer-events: all; stroke-width: 0;" x="59.5" y="100" width="20" height="61.5" data-subplot="xy" /></g></g><g class="layer-below"><g class="imagelayer" /><g class="shapelayer" /></g><g class="cartesianlayer"><g class="subplot xy"><g class="layer-subplot"><g class="shapelayer" /><g class="imagelayer" /></g><g class="gridlayer"><g class="x"><path class="xgrid crisp" style="stroke: rgb(238, 238, 238); stroke-opacity: 1; stroke-width: 1px;" transform="translate(154.99)" d="M 0 100 v 615" /><path class="xgrid crisp" style="stroke: rgb(238, 238, 238); stroke-opacity: 1; stroke-width: 1px;" transform="translate(301.79)" d="M 0 100 v 615" /><path class="xgrid crisp" style="stroke: rgb(238, 238, 238); stroke-opacity: 1; stroke-width: 1px;" transform="translate(448.58)" d="M 0 100 v 615" /><path class="xgrid crisp" style="stroke: rgb(238, 238, 238); stroke-opacity: 1; stroke-width: 1px;" transform="translate(592.19)" d="M 0 100 v 615" /><path class="xgrid crisp" style="stroke: rgb(238, 238, 238); stroke-opacity: 1; stroke-width: 1px;" transform="translate(737.39)" d="M 0 100 v 615" /><path class="xgrid crisp" style="stroke: rgb(238, 238, 238); stroke-opacity: 1; stroke-width: 1px;" transform="translate(884.18)" d="M 0 100 v 615" /><path class="xgrid crisp" style="stroke: rgb(238, 238, 238); stroke-opacity: 1; stroke-width: 1px;" transform="translate(1030.98)" d="M 0 100 v 615" /><path class="xgrid crisp" style="stroke: rgb(238, 238, 238); stroke-opacity: 1; stroke-width: 1px;" transform="translate(1174.58)" d="M 0 100 v 615" /><path class="xgrid crisp" style="stroke: rgb(238, 238, 238); stroke-opacity: 1; stroke-width: 1px;" transform="translate(1319.78)" d="M 0 100 v 615" /><path class="xgrid crisp" style="stroke: rgb(238, 238, 238); stroke-opacity: 1; stroke-width: 1px;" transform="translate(1466.58)" d="M 0 100 v 615" /></g><g class="y"><path class="ygrid crisp" style="stroke: rgb(238, 238, 238); stroke-opacity: 1; stroke-width: 1px;" transform="translate(0 650.19)" d="M 80 0 h 1452" /><path class="ygrid crisp" style="stroke: rgb(238, 238, 238); stroke-opacity: 1; stroke-width: 1px;" transform="translate(0 565.03)" d="M 80 0 h 1452" /><path class="ygrid crisp" style="stroke: rgb(238, 238, 238); stroke-opacity: 1; stroke-width: 1px;" transform="translate(0 479.88)" d="M 80 0 h 1452" /><path class="ygrid crisp" style="stroke: rgb(238, 238, 238); stroke-opacity: 1; stroke-width: 1px;" transform="translate(0 394.73)" d="M 80 0 h 1452" /><path class="ygrid crisp" style="stroke: rgb(238, 238, 238); stroke-opacity: 1; stroke-width: 1px;" transform="translate(0 309.57)" d="M 80 0 h 1452" /><path class="ygrid crisp" style="stroke: rgb(238, 238, 238); stroke-opacity: 1; stroke-width: 1px;" transform="translate(0 224.42)" d="M 80 0 h 1452" /><path class="ygrid crisp" style="stroke: rgb(238, 238, 238); stroke-opacity: 1; stroke-width: 1px;" transform="translate(0 139.27)" d="M 80 0 h 1452" /></g></g><g class="zerolinelayer" /><path class="xlines-below" /><path class="ylines-below" /><g class="overlines-below" /><g class="xaxislayer-below" /><g class="yaxislayer-below" /><g class="overaxes-below" /><g class="plot" clip-path="url(&quot;#clipb2d48exyplot&quot;)" transform="translate(80 100)"><g class="scatterlayer mlayer"><g class="trace scatter traceaf65914b-11e8-4bfe-8596-319a87f7e969" style="opacity: 1; stroke-miterlimit: 2;"><g class="fills" /><g class="errorbars" /><g class="lines"><path class="js-line" style="opacity: 1; fill: none; stroke: rgb(31, 119, 180); stroke-opacity: 1; stroke-width: 2px;" d="M 0 562.11 L 1.6 563.81 L 3.19 569.77 L 6.38 576.59 L 11.17 577.44 L 12.76 568.07 L 14.36 566.37 L 15.96 541.67 L 17.55 541.67 L 23.93 540.82 L 25.53 533.16 L 27.13 534.01 L 28.72 535.71 L 33.51 547.63 L 35.1 546.78 L 36.7 539.12 L 38.29 539.12 L 39.89 537.42 L 44.68 540.82 L 46.27 539.97 L 47.87 543.38 L 51.06 548.49 L 55.85 539.12 L 57.44 539.97 L 59.04 537.42 L 60.63 528.9 L 62.23 528.9 L 67.02 524.64 L 68.61 519.53 L 70.21 513.57 L 71.8 513.57 L 73.4 516.98 L 78.18 516.13 L 79.78 521.24 L 81.38 518.68 L 82.97 516.13 L 84.57 510.17 L 89.35 499.95 L 90.95 443.75 L 92.55 436.08 L 94.14 388.4 L 95.74 388.4 L 100.52 396.06 L 102.12 375.62 L 103.71 372.22 L 106.91 389.25 L 111.69 384.14 L 113.29 379.88 L 114.88 402.02 L 116.48 414.79 L 118.07 402.02 L 122.86 407.98 L 124.46 376.47 L 126.05 367.11 L 127.65 379.03 L 129.24 365.4 L 134.03 379.88 L 135.63 375.62 L 137.22 402.87 L 138.82 412.24 L 140.41 463.33 L 146.8 438.64 L 148.39 436.08 L 149.99 429.27 L 151.58 427.57 L 156.37 425.86 L 157.96 409.68 L 159.56 388.4 L 161.16 385.84 L 162.75 370.51 L 167.54 350.08 L 169.13 322.83 L 170.73 343.26 L 172.33 356.04 L 173.92 362 L 178.71 318.57 L 180.3 325.38 L 181.9 320.27 L 183.49 342.41 L 185.09 338.16 L 189.88 347.52 L 191.47 333.9 L 193.07 343.26 L 194.66 352.63 L 196.26 355.19 L 201.05 358.59 L 202.64 368.81 L 205.83 340.71 L 207.43 342.41 L 212.22 355.19 L 213.81 375.62 L 215.41 385.84 L 217 390.1 L 218.6 370.51 L 234.55 354.33 L 236.15 339.86 L 237.75 334.75 L 239.34 333.05 L 240.94 349.23 L 245.72 329.64 L 247.32 336.45 L 248.91 321.12 L 250.51 326.23 L 252.11 339.01 L 256.89 363.7 L 258.49 346.67 L 260.08 356.89 L 261.68 364.55 L 263.27 332.19 L 268.06 332.19 L 269.66 333.9 L 271.25 345.82 L 272.85 333.9 L 274.44 346.67 L 279.23 356.04 L 280.83 301.54 L 282.42 283.66 L 284.02 266.63 L 285.61 269.18 L 290.4 218.09 L 292 213.83 L 293.59 218.09 L 295.19 201.06 L 296.78 194.25 L 301.57 103.13 L 303.16 86.1 L 304.76 30.75 L 306.36 94.62 L 307.95 76.73 L 314.33 149.97 L 315.93 139.75 L 319.12 209.57 L 323.91 184.03 L 325.5 184.03 L 327.1 202.76 L 328.69 224.05 L 330.29 201.91 L 335.08 167 L 336.67 207.87 L 338.27 198.5 L 339.86 209.57 L 341.46 233.42 L 346.25 230.86 L 347.84 185.73 L 349.44 187.43 L 351.03 163.59 L 352.63 165.29 L 357.42 188.28 L 359.01 153.37 L 360.61 184.88 L 362.2 191.69 L 370.18 149.97 L 371.78 181.47 L 373.37 188.28 L 374.97 184.03 L 379.75 212.98 L 381.35 202.76 L 382.95 169.55 L 384.54 175.51 L 386.14 162.74 L 390.92 107.39 L 392.52 107.39 L 394.11 104.83 L 395.71 63.11 L 397.31 56.3 L 402.09 86.95 L 403.69 69.07 L 405.28 69.92 L 406.88 107.39 L 408.47 120.16 L 413.26 146.56 L 414.86 154.22 L 416.45 120.16 L 418.05 121.86 L 419.64 120.16 L 424.43 77.58 L 426.03 124.42 L 427.62 216.39 L 429.22 248.74 L 430.81 321.12 L 435.6 318.57 L 437.2 299.84 L 438.79 294.73 L 451.56 255.56 L 453.15 242.78 L 457.94 241.08 L 459.53 270.88 L 461.13 290.47 L 462.73 291.32 L 464.32 298.98 L 469.11 306.65 L 470.7 286.21 L 472.3 290.47 L 473.89 285.36 L 475.49 287.06 L 481.87 293.02 L 483.47 301.54 L 485.06 319.42 L 486.66 325.38 L 491.45 309.2 L 493.04 310.05 L 494.64 303.24 L 496.23 323.68 L 497.83 350.93 L 502.62 385.84 L 504.21 384.99 L 505.81 389.25 L 507.4 375.62 L 509 388.4 L 513.78 404.58 L 515.38 417.35 L 516.98 390.95 L 524.95 378.18 L 528.15 309.2 L 529.74 335.6 L 531.34 331.34 L 536.12 371.37 L 537.72 362 L 539.31 337.3 L 540.91 339.86 L 542.51 350.08 L 547.29 331.34 L 548.89 306.65 L 552.08 344.12 L 553.67 392.65 L 561.65 390.1 L 563.25 401.17 L 564.84 407.13 L 569.63 396.06 L 571.23 379.03 L 572.82 382.44 L 574.42 379.03 L 576.01 379.03 L 580.8 364.55 L 582.4 369.66 L 583.99 388.4 L 585.59 395.21 L 587.18 383.29 L 591.97 384.14 L 593.56 391.8 L 595.16 409.68 L 598.35 414.79 L 603.14 414.79 L 606.33 458.22 L 607.93 449.71 L 609.52 448.86 L 614.31 442.04 L 615.9 442.89 L 617.5 453.11 L 619.09 433.53 L 620.69 454.82 L 625.48 461.63 L 627.07 459.93 L 628.67 469.29 L 630.26 459.07 L 631.86 450.56 L 638.24 476.1 L 639.84 472.7 L 641.43 476.96 L 643.03 477.81 L 647.82 511.02 L 649.41 519.53 L 651.01 542.52 L 652.6 557 L 654.2 542.52 L 658.98 583.4 L 660.58 578.29 L 662.18 583.4 L 663.77 584.25 L 665.37 579.14 L 670.15 547.63 L 671.75 551.89 L 673.35 568.92 L 674.94 560.41 L 676.54 560.41 L 681.32 573.18 L 682.92 574.03 L 684.51 575.73 L 686.11 573.18 L 687.71 540.82 L 692.49 514.42 L 695.68 517.83 L 697.28 528.9 L 698.87 528.9 L 703.66 516.98 L 705.26 514.42 L 706.85 537.42 L 708.45 555.3 L 710.04 557.85 L 714.83 555.3 L 716.43 535.71 L 718.02 545.93 L 719.62 525.49 L 727.6 550.19 L 729.19 568.07 L 730.79 568.92 L 732.38 566.37 L 737.17 550.19 L 738.76 530.6 L 741.96 519.53 L 743.55 462.48 L 748.34 428.42 L 749.93 440.34 L 751.53 442.04 L 753.13 454.82 L 754.72 453.96 L 759.51 448.86 L 761.1 428.42 L 762.7 460.78 L 764.29 467.59 L 765.89 464.18 L 770.68 475.25 L 772.27 472.7 L 773.87 475.25 L 775.46 468.44 L 777.06 478.66 L 781.85 491.43 L 783.44 458.22 L 785.04 444.6 L 786.63 445.45 L 788.23 407.98 L 794.61 418.2 L 796.21 404.58 L 797.8 402.02 L 799.4 375.62 L 815.35 426.72 L 816.95 417.35 L 818.55 426.72 L 820.14 476.96 L 821.74 439.49 L 826.52 455.67 L 828.12 433.53 L 829.71 436.93 L 831.31 457.37 L 832.91 400.32 L 837.69 367.11 L 839.29 393.51 L 842.48 355.19 L 844.07 364.55 L 848.86 401.17 L 850.46 388.4 L 852.05 387.54 L 853.65 394.36 L 855.24 372.22 L 860.03 386.69 L 861.63 393.51 L 863.22 396.06 L 864.82 389.25 L 866.41 418.2 L 871.2 417.35 L 872.8 419.05 L 874.39 427.57 L 875.99 412.24 L 877.58 416.5 L 882.37 392.65 L 883.96 416.5 L 885.56 413.09 L 887.16 418.2 L 888.75 437.79 L 893.54 436.08 L 895.13 449.71 L 896.73 441.19 L 898.33 448 L 899.92 434.38 L 904.71 414.79 L 906.3 414.79 L 907.9 426.72 L 909.49 443.75 L 911.09 441.19 L 915.88 450.56 L 917.47 445.45 L 919.07 444.6 L 920.66 431.82 L 922.26 450.56 L 927.05 440.34 L 931.83 489.73 L 933.43 511.87 L 938.22 514.42 L 939.81 521.24 L 943 526.35 L 944.6 517.83" /></g><g class="points" /><g class="text" /></g><g class="trace scatter trace0946b25d-bc31-4286-a27e-b0d2ca1c716a" style="opacity: 1; stroke-miterlimit: 2;"><g class="fills" /><g class="errorbars" /><g class="lines"><path class="js-line" style="opacity: 1; fill: none; stroke: rgb(255, 127, 14); stroke-opacity: 1; stroke-width: 2px;" d="M 952.58 562.11 L 954.17 563.81 L 955.77 569.77 L 960.55 573.18 L 962.15 576.59 L 963.75 577.44 L 965.34 568.07 L 966.94 566.37 L 971.72 541.67 L 973.32 541.67 L 974.91 540.82 L 976.51 533.16 L 978.11 534.01 L 982.89 535.71 L 984.49 547.63 L 986.08 546.78 L 987.68 539.12 L 989.27 539.12 L 994.06 537.42 L 995.66 540.82 L 997.25 539.97 L 1000.44 546.78 L 1016.4 548.49 L 1018 539.12 L 1019.59 539.97 L 1021.19 537.42 L 1022.78 528.9 L 1027.57 528.9 L 1029.16 524.64 L 1032.36 513.57 L 1033.95 513.57 L 1038.74 516.98 L 1040.33 516.13 L 1041.93 521.24 L 1043.53 518.68 L 1045.12 516.13 L 1049.91 510.17 L 1051.5 499.95 L 1053.1 443.75 L 1054.69 436.08 L 1056.29 388.4 L 1061.08 388.4 L 1062.67 396.06 L 1064.27 375.62 L 1065.86 372.22 L 1067.46 382.44 L 1072.25 389.25 L 1075.44 379.88 L 1077.03 402.02 L 1078.63 414.79 L 1083.42 402.02 L 1085.01 407.98 L 1086.61 376.47 L 1088.2 367.11 L 1089.8 379.03 L 1094.58 365.4 L 1096.18 379.88 L 1097.78 375.62 L 1099.37 402.87 L 1105.75 412.24 L 1107.35 463.33 L 1108.95 446.3 L 1110.54 438.64 L 1116.92 429.27 L 1118.52 427.57 L 1120.11 425.86 L 1121.71 409.68 L 1123.31 388.4 L 1128.09 385.84 L 1131.28 350.08 L 1132.88 322.83 L 1134.47 343.26 L 1139.26 356.04 L 1140.86 362 L 1150.43 318.57 L 1152.03 325.38 L 1153.62 320.27 L 1155.22 342.41 L 1156.81 338.16 L 1161.6 347.52 L 1163.2 333.9 L 1166.39 352.63 L 1167.98 355.19 L 1172.77 358.59 L 1174.36 368.81 L 1177.56 340.71 L 1179.15 342.41 L 1183.94 355.19 L 1185.53 375.62 L 1187.13 385.84 L 1188.73 390.1 L 1190.32 370.51 L 1195.11 354.33 L 1196.7 339.86 L 1198.3 334.75 L 1199.89 333.05 L 1206.28 349.23 L 1207.87 329.64 L 1209.47 336.45 L 1211.06 321.12 L 1212.66 326.23 L 1217.45 339.01 L 1219.04 363.7 L 1220.64 346.67 L 1222.23 356.89 L 1223.83 364.55 L 1228.62 332.19 L 1230.21 332.19 L 1231.81 333.9 L 1233.4 345.82 L 1235 333.9 L 1239.78 346.67 L 1241.38 356.04 L 1242.98 301.54 L 1244.57 283.66 L 1246.17 266.63 L 1250.95 269.18 L 1252.55 218.09 L 1254.15 213.83 L 1255.74 218.09 L 1257.34 201.06 L 1262.12 194.25 L 1263.72 103.13 L 1265.31 86.1 L 1266.91 30.75 L 1268.51 94.62 L 1273.29 76.73 L 1274.89 130.38 L 1276.48 149.97 L 1278.08 139.75 L 1279.67 177.21 L 1284.46 209.57 L 1286.06 184.03 L 1287.65 184.03 L 1289.25 202.76 L 1290.84 224.05 L 1295.63 201.91 L 1297.23 167 L 1298.82 207.87 L 1300.42 198.5 L 1302.01 209.57 L 1306.8 233.42 L 1308.4 230.86 L 1309.99 185.73 L 1311.59 187.43 L 1313.18 163.59 L 1317.97 165.29 L 1319.56 188.28 L 1321.16 153.37 L 1322.76 184.88 L 1324.35 191.69 L 1329.14 184.03 L 1330.73 149.97 L 1332.33 181.47 L 1333.93 188.28 L 1335.52 184.03 L 1340.31 212.98 L 1341.9 202.76 L 1343.5 169.55 L 1345.09 175.51 L 1346.69 162.74 L 1351.48 107.39 L 1353.07 107.39 L 1354.67 104.83 L 1356.26 63.11 L 1362.65 56.3 L 1364.24 86.95 L 1365.84 69.07 L 1367.43 69.92 L 1369.03 107.39 L 1373.82 120.16 L 1375.41 146.56 L 1377.01 154.22 L 1378.6 120.16 L 1380.2 121.86 L 1384.98 120.16 L 1397.75 77.58 L 1399.35 124.42 L 1400.94 216.39 L 1402.54 248.74 L 1407.32 321.12 L 1408.92 318.57 L 1410.51 299.84 L 1412.11 294.73 L 1413.71 255.56 L 1418.49 242.78 L 1420.09 241.08 L 1423.28 290.47 L 1424.87 291.32 L 1429.66 298.98 L 1431.26 306.65 L 1432.85 286.21 L 1434.45 290.47 L 1436.04 285.36 L 1440.83 287.06 L 1442.43 292.17 L 1444.02 293.02 L 1445.62 301.54 L 1447.21 319.42 L 1452 325.38" /></g><g class="points" /><g class="text" /></g><g class="trace scatter tracef95dbcd4-4903-4fa9-95e2-a10a1cacb201" style="opacity: 1; stroke-miterlimit: 2;"><g class="fills" /><g class="errorbars" /><g class="lines"><path class="js-line" style="opacity: 1; fill: none; stroke: rgb(44, 160, 44); stroke-opacity: 1; stroke-width: 2px;" d="M 952.58 406.78 L 954.17 406.13 L 955.77 411.71 L 960.55 406.15 L 962.15 408.22 L 963.75 409.67 L 965.34 409.12 L 966.94 402.23 L 971.72 401.58 L 973.32 407.16 L 974.91 401.6 L 978.11 405.13 L 982.89 404.57 L 984.49 397.69 L 986.08 397.04 L 987.68 402.62 L 989.27 397.06 L 995.66 400.58 L 997.25 400.03 L 998.85 393.14 L 1000.44 392.49 L 1016.4 398.07 L 1018 392.51 L 1021.19 396.04 L 1022.78 395.48 L 1027.57 388.6 L 1029.16 387.95 L 1030.76 393.53 L 1032.36 387.97 L 1033.95 390.04 L 1038.74 391.49 L 1040.33 390.94 L 1041.93 384.05 L 1043.53 383.4 L 1045.12 388.98 L 1049.91 383.42 L 1051.5 385.49 L 1053.1 386.95 L 1054.69 386.39 L 1056.29 379.51 L 1061.08 378.86 L 1062.67 384.44 L 1064.27 378.88 L 1067.46 382.4 L 1072.25 381.85 L 1073.84 374.96 L 1075.44 374.31 L 1077.03 379.89 L 1078.63 374.33 L 1085.01 377.86 L 1086.61 377.3 L 1088.2 370.42 L 1089.8 369.77 L 1094.58 375.35 L 1096.18 369.79 L 1099.37 373.31 L 1105.75 372.76 L 1107.35 365.87 L 1108.95 365.22 L 1110.54 370.8 L 1112.14 365.24 L 1118.52 368.77 L 1120.11 368.21 L 1121.71 361.33 L 1123.31 360.68 L 1128.09 366.26 L 1129.69 360.7 L 1132.88 364.22 L 1134.47 363.67 L 1139.26 356.78 L 1140.86 356.13 L 1150.43 361.71 L 1152.03 356.15 L 1155.22 359.68 L 1156.81 359.12 L 1161.6 352.24 L 1163.2 351.59 L 1164.79 357.17 L 1166.39 351.61 L 1167.98 353.68 L 1172.77 355.13 L 1174.36 354.58 L 1175.96 347.69 L 1177.56 347.05 L 1179.15 352.62 L 1183.94 347.06 L 1185.53 349.13 L 1187.13 350.59 L 1188.73 350.03 L 1190.32 343.15 L 1195.11 342.5 L 1196.7 348.08 L 1198.3 342.52 L 1199.89 344.59 L 1206.28 346.04 L 1207.87 345.49 L 1209.47 338.6 L 1211.06 337.96 L 1212.66 343.53 L 1217.45 337.97 L 1219.04 340.04 L 1220.64 341.5 L 1222.23 340.94 L 1223.83 334.06 L 1228.62 333.41 L 1230.21 338.99 L 1231.81 333.43 L 1235 336.95 L 1239.78 336.4 L 1241.38 329.51 L 1242.98 328.87 L 1244.57 334.44 L 1246.17 328.88 L 1252.55 332.41 L 1254.15 331.85 L 1255.74 324.97 L 1257.34 324.32 L 1262.12 329.9 L 1263.72 324.34 L 1266.91 327.86 L 1268.51 327.31 L 1273.29 320.42 L 1274.89 319.78 L 1276.48 325.35 L 1278.08 319.79 L 1279.67 321.86 L 1284.46 323.32 L 1286.06 322.76 L 1287.65 315.88 L 1289.25 315.23 L 1290.84 320.81 L 1295.63 315.25 L 1297.23 317.32 L 1298.82 318.77 L 1300.42 318.22 L 1302.01 311.33 L 1306.8 310.69 L 1308.4 316.26 L 1309.99 310.7 L 1313.18 314.23 L 1317.97 313.67 L 1319.56 306.79 L 1321.16 306.14 L 1322.76 311.72 L 1324.35 306.16 L 1330.73 309.68 L 1332.33 309.13 L 1333.93 302.24 L 1335.52 301.6 L 1340.31 307.17 L 1341.9 301.61 L 1345.09 305.14 L 1346.69 304.58 L 1351.48 297.7 L 1353.07 297.05 L 1354.67 302.63 L 1356.26 297.07 L 1362.65 299.14 L 1364.24 300.59 L 1365.84 300.04 L 1367.43 293.15 L 1369.03 292.51 L 1373.82 298.08 L 1375.41 292.52 L 1377.01 294.59 L 1378.6 296.05 L 1380.2 295.49 L 1384.98 288.61 L 1397.75 287.96 L 1399.35 293.54 L 1400.94 287.98 L 1402.54 290.05 L 1407.32 291.5 L 1408.92 290.95 L 1410.51 284.06 L 1412.11 283.42 L 1413.71 288.99 L 1418.49 283.43 L 1420.09 285.5 L 1421.68 286.96 L 1423.28 286.4 L 1424.87 279.52 L 1429.66 278.87 L 1431.26 284.45 L 1432.85 278.89 L 1436.04 282.41 L 1440.83 281.86 L 1442.43 274.97 L 1444.02 274.33 L 1445.62 279.9 L 1447.21 274.34 L 1452 276.41" /></g><g class="points" /><g class="text" /></g></g></g><g class="overplot" /><path class="xlines-above crisp" style="fill: none;" d="M 0 0" /><path class="ylines-above crisp" style="fill: none;" d="M 0 0" /><g class="overlines-above" /><g class="xaxislayer-above"><g class="xtick"><text style="font-family: &quot;Open Sans&quot;, verdana, arial, sans-serif; font-size: 12px; white-space: pre; fill: rgb(68, 68, 68); fill-opacity: 1;" text-anchor="middle" transform="translate(154.99)" x="0" y="728" data-unformatted="Jul 2017" data-math="N">Jul 2017</text></g><g class="xtick"><text style="font-family: &quot;Open Sans&quot;, verdana, arial, sans-serif; font-size: 12px; white-space: pre; fill: rgb(68, 68, 68); fill-opacity: 1;" text-anchor="middle" transform="translate(301.79)" x="0" y="728" data-unformatted="Oct 2017" data-math="N">Oct 2017</text></g><g class="xtick"><text style="font-family: &quot;Open Sans&quot;, verdana, arial, sans-serif; font-size: 12px; white-space: pre; fill: rgb(68, 68, 68); fill-opacity: 1;" text-anchor="middle" transform="translate(448.58)" x="0" y="728" data-unformatted="Jan 2018" data-math="N">Jan 2018</text></g><g class="xtick"><text style="font-family: &quot;Open Sans&quot;, verdana, arial, sans-serif; font-size: 12px; white-space: pre; fill: rgb(68, 68, 68); fill-opacity: 1;" text-anchor="middle" transform="translate(592.19)" x="0" y="728" data-unformatted="Apr 2018" data-math="N">Apr 2018</text></g><g class="xtick"><text style="font-family: &quot;Open Sans&quot;, verdana, arial, sans-serif; font-size: 12px; white-space: pre; fill: rgb(68, 68, 68); fill-opacity: 1;" text-anchor="middle" transform="translate(737.39)" x="0" y="728" data-unformatted="Jul 2018" data-math="N">Jul 2018</text></g><g class="xtick"><text style="font-family: &quot;Open Sans&quot;, verdana, arial, sans-serif; font-size: 12px; white-space: pre; fill: rgb(68, 68, 68); fill-opacity: 1;" text-anchor="middle" transform="translate(884.18)" x="0" y="728" data-unformatted="Oct 2018" data-math="N">Oct 2018</text></g><g class="xtick"><text style="font-family: &quot;Open Sans&quot;, verdana, arial, sans-serif; font-size: 12px; white-space: pre; fill: rgb(68, 68, 68); fill-opacity: 1;" text-anchor="middle" transform="translate(1030.98)" x="0" y="728" data-unformatted="Jan 2019" data-math="N">Jan 2019</text></g><g class="xtick"><text style="font-family: &quot;Open Sans&quot;, verdana, arial, sans-serif; font-size: 12px; white-space: pre; fill: rgb(68, 68, 68); fill-opacity: 1;" text-anchor="middle" transform="translate(1174.58)" x="0" y="728" data-unformatted="Apr 2019" data-math="N">Apr 2019</text></g><g class="xtick"><text style="font-family: &quot;Open Sans&quot;, verdana, arial, sans-serif; font-size: 12px; white-space: pre; fill: rgb(68, 68, 68); fill-opacity: 1;" text-anchor="middle" transform="translate(1319.78)" x="0" y="728" data-unformatted="Jul 2019" data-math="N">Jul 2019</text></g><g class="xtick"><text style="font-family: &quot;Open Sans&quot;, verdana, arial, sans-serif; font-size: 12px; white-space: pre; fill: rgb(68, 68, 68); fill-opacity: 1;" text-anchor="middle" transform="translate(1466.58)" x="0" y="728" data-unformatted="Oct 2019" data-math="N">Oct 2019</text></g></g><g class="yaxislayer-above"><g class="ytick"><text style="font-family: &quot;Open Sans&quot;, verdana, arial, sans-serif; font-size: 12px; white-space: pre; fill: rgb(68, 68, 68); fill-opacity: 1;" text-anchor="end" transform="translate(0 650.19)" x="79" y="4.2" data-unformatted="9" data-math="N">9</text></g><g class="ytick"><text style="font-family: &quot;Open Sans&quot;, verdana, arial, sans-serif; font-size: 12px; white-space: pre; fill: rgb(68, 68, 68); fill-opacity: 1;" text-anchor="end" transform="translate(0 565.03)" x="79" y="4.2" data-unformatted="10" data-math="N">10</text></g><g class="ytick"><text style="font-family: &quot;Open Sans&quot;, verdana, arial, sans-serif; font-size: 12px; white-space: pre; fill: rgb(68, 68, 68); fill-opacity: 1;" text-anchor="end" transform="translate(0 479.88)" x="79" y="4.2" data-unformatted="11" data-math="N">11</text></g><g class="ytick"><text style="font-family: &quot;Open Sans&quot;, verdana, arial, sans-serif; font-size: 12px; white-space: pre; fill: rgb(68, 68, 68); fill-opacity: 1;" text-anchor="end" transform="translate(0 394.73)" x="79" y="4.2" data-unformatted="12" data-math="N">12</text></g><g class="ytick"><text style="font-family: &quot;Open Sans&quot;, verdana, arial, sans-serif; font-size: 12px; white-space: pre; fill: rgb(68, 68, 68); fill-opacity: 1;" text-anchor="end" transform="translate(0 309.57)" x="79" y="4.2" data-unformatted="13" data-math="N">13</text></g><g class="ytick"><text style="font-family: &quot;Open Sans&quot;, verdana, arial, sans-serif; font-size: 12px; white-space: pre; fill: rgb(68, 68, 68); fill-opacity: 1;" text-anchor="end" transform="translate(0 224.42)" x="79" y="4.2" data-unformatted="14" data-math="N">14</text></g><g class="ytick"><text style="font-family: &quot;Open Sans&quot;, verdana, arial, sans-serif; font-size: 12px; white-space: pre; fill: rgb(68, 68, 68); fill-opacity: 1;" text-anchor="end" transform="translate(0 139.27)" x="79" y="4.2" data-unformatted="15" data-math="N">15</text></g></g><g class="overaxes-above" /></g></g><g class="polarlayer" /><g class="ternarylayer" /><g class="geolayer" /><g class="pielayer" /><g class="glimages" /></svg>