<svg xmlns="http://www.w3.org/2000/svg" class="main-svg" style="background: rgb(255, 255, 255);" width="1653.57" height="795.3"><defs id="defs-ec4919"><g class="clips"><clipPath class="plotclip" id="clipec4919xyplot"><rect width="1266" height="615" /></clipPath><clipPath class="axesclip" id="clipec4919x"><rect x="80" y="0" width="1266" height="795.3" /></clipPath><clipPath class="axesclip" id="clipec4919y"><rect x="0" y="100" width="1653.57" height="615" /></clipPath><clipPath class="axesclip" id="clipec4919xy"><rect x="80" y="100" width="1266" height="615" /></clipPath></g><g class="gradients" /></defs><g class="bglayer" /><g class="draglayer cursor-crosshair"><g class="xy"><rect class="nsewdrag drag" style="fill: transparent; pointer-events: all; stroke-width: 0;" x="80" y="100" width="1266" height="615" data-subplot="xy" /><rect class="nwdrag drag cursor-nw-resize" style="fill: transparent; pointer-events: all; stroke-width: 0;" x="60" y="80" width="20" height="20" data-subplot="xy" /><rect class="nedrag drag cursor-ne-resize" style="fill: transparent; pointer-events: all; stroke-width: 0;" x="1346" y="80" width="20" height="20" data-subplot="xy" /><rect class="swdrag drag cursor-sw-resize" style="fill: transparent; pointer-events: all; stroke-width: 0;" x="60" y="715" width="20" height="20" data-subplot="xy" /><rect class="sedrag drag cursor-se-resize" style="fill: transparent; pointer-events: all; stroke-width: 0;" x="1346" y="715" width="20" height="20" data-subplot="xy" /><rect class="ewdrag drag cursor-ew-resize" style="fill: transparent; pointer-events: all; stroke-width: 0;" x="206.6" y="715.5" width="1012.8" height="20" data-subplot="xy" /><rect class="wdrag drag cursor-w-resize" style="fill: transparent; pointer-events: all; stroke-width: 0;" x="80" y="715.5" width="126.6" height="20" data-subplot="xy" /><rect class="edrag drag cursor-e-resize" style="fill: transparent; pointer-events: all; stroke-width: 0;" x="1219.4" y="715.5" width="126.6" height="20" data-subplot="xy" /><rect class="nsdrag drag cursor-ns-resize" style="fill: transparent; pointer-events: all; stroke-width: 0;" x="59.5" y="161.5" width="20" height="492" data-subplot="xy" /><rect class="sdrag drag cursor-s-resize" style="fill: transparent; pointer-events: all; stroke-width: 0;" x="59.5" y="653.5" width="20" height="61.5" data-subplot="xy" /><rect class="ndrag drag cursor-n-resize" style="fill: transparent; pointer-events: all; stroke-width: 0;" x="59.5" y="100" width="20" height="61.5" data-subplot="xy" /></g></g><g class="layer-below"><g class="imagelayer" /><g class="shapelayer" /></g><g class="cartesianlayer"><g class="subplot xy"><g class="layer-subplot"><g class="shapelayer" /><g class="imagelayer" /></g><g class="gridlayer"><g class="x"><path class="xgrid crisp" style="stroke: rgb(238, 238, 238); stroke-opacity: 1; stroke-width: 1px;" transform="translate(106.62)" d="M 0 100 v 615" /><path class="xgrid crisp" style="stroke: rgb(238, 238, 238); stroke-opacity: 1; stroke-width: 1px;" transform="translate(389.6)" d="M 0 100 v 615" /><path class="xgrid crisp" style="stroke: rgb(238, 238, 238); stroke-opacity: 1; stroke-width: 1px;" transform="translate(672.57)" d="M 0 100 v 615" /><path class="xgrid crisp" style="stroke: rgb(238, 238, 238); stroke-opacity: 1; stroke-width: 1px;" transform="translate(955.55)" d="M 0 100 v 615" /><path class="xgrid crisp" style="stroke: rgb(238, 238, 238); stroke-opacity: 1; stroke-width: 1px;" transform="translate(1238.53)" d="M 0 100 v 615" /></g><g class="y"><path class="ygrid crisp" style="stroke: rgb(238, 238, 238); stroke-opacity: 1; stroke-width: 1px;" transform="translate(0 693.73)" d="M 80 0 h 1266" /><path class="ygrid crisp" style="stroke: rgb(238, 238, 238); stroke-opacity: 1; stroke-width: 1px;" transform="translate(0 586.95)" d="M 80 0 h 1266" /><path class="ygrid crisp" style="stroke: rgb(238, 238, 238); stroke-opacity: 1; stroke-width: 1px;" transform="translate(0 373.41)" d="M 80 0 h 1266" /><path class="ygrid crisp" style="stroke: rgb(238, 238, 238); stroke-opacity: 1; stroke-width: 1px;" transform="translate(0 266.63)" d="M 80 0 h 1266" /><path class="ygrid crisp" style="stroke: rgb(238, 238, 238); stroke-opacity: 1; stroke-width: 1px;" transform="translate(0 159.86)" d="M 80 0 h 1266" /></g></g><g class="zerolinelayer"><path class="yzl zl crisp" style="stroke: rgb(68, 68, 68); stroke-opacity: 1; stroke-width: 1px;" transform="translate(0 480.18)" d="M 80 0 h 1266" /></g><path class="xlines-below" /><path class="ylines-below" /><g class="overlines-below" /><g class="xaxislayer-below" /><g class="yaxislayer-below" /><g class="overaxes-below" /><g class="plot" clip-path="url(&quot;#clipec4919xyplot&quot;)" transform="translate(80 100)"><g class="scatterlayer mlayer"><g class="trace scatter tracec0a3fb76-b8c2-439f-b36a-8b8451b2638f" style="opacity: 1; stroke-miterlimit: 2;"><g class="fills" /><g class="errorbars" /><g class="lines"><path class="js-line" style="opacity: 1; fill: none; stroke: rgb(31, 119, 180); stroke-opacity: 1; stroke-width: 2px;" d="M 67.05 299.9 L 350.02 578.16 L 633 229.75 L 915.98 339.65 L 1198.95 580.5" /></g><g class="points"><path class="point" style="opacity: 1; fill: rgb(31, 119, 180); fill-opacity: 1; stroke-width: 0px;" transform="translate(67.05 299.9)" d="M 3 0 A 3 3 0 1 1 0 -3 A 3 3 0 0 1 3 0 Z" /><path class="point" style="opacity: 1; fill: rgb(31, 119, 180); fill-opacity: 1; stroke-width: 0px;" transform="translate(350.02 578.16)" d="M 3 0 A 3 3 0 1 1 0 -3 A 3 3 0 0 1 3 0 Z" /><path class="point" style="opacity: 1; fill: rgb(31, 119, 180); fill-opacity: 1; stroke-width: 0px;" transform="translate(633 229.75)" d="M 3 0 A 3 3 0 1 1 0 -3 A 3 3 0 0 1 3 0 Z" /><path class="point" style="opacity: 1; fill: rgb(31, 119, 180); fill-opacity: 1; stroke-width: 0px;" transform="translate(915.98 339.65)" d="M 3 0 A 3 3 0 1 1 0 -3 A 3 3 0 0 1 3 0 Z" /><path class="point" style="opacity: 1; fill: rgb(31, 119, 180); fill-opacity: 1; stroke-width: 0px;" transform="translate(1198.95 580.5)" d="M 3 0 A 3 3 0 1 1 0 -3 A 3 3 0 0 1 3 0 Z" /></g><g class="text" /></g><g class="trace scatter trace2d68e3f6-8bbb-457b-8994-57609c5352e1" style="opacity: 1; stroke-miterlimit: 2;"><g class="fills" /><g class="errorbars" /><g class="lines"><path class="js-line" style="opacity: 1; fill: none; stroke: rgb(255, 127, 14); stroke-opacity: 1; stroke-width: 2px;" d="M 67.05 288.72 L 350.02 83.41 L 633 34.5 L 915.98 132.86 L 1198.95 242.29" /></g><g class="points"><path class="point" style="opacity: 1; fill: rgb(255, 127, 14); fill-opacity: 1; stroke-width: 0px;" transform="translate(67.05 288.72)" d="M 3 0 A 3 3 0 1 1 0 -3 A 3 3 0 0 1 3 0 Z" /><path class="point" style="opacity: 1; fill: rgb(255, 127, 14); fill-opacity: 1; stroke-width: 0px;" transform="translate(350.02 83.41)" d="M 3 0 A 3 3 0 1 1 0 -3 A 3 3 0 0 1 3 0 Z" /><path class="point" style="opacity: 1; fill: rgb(255, 127, 14); fill-opacity: 1; stroke-width: 0px;" transform="translate(633 34.5)" d="M 3 0 A 3 3 0 1 1 0 -3 A 3 3 0 0 1 3 0 Z" /><path class="point" style="opacity: 1; fill: rgb(255, 127, 14); fill-opacity: 1; stroke-width: 0px;" transform="translate(915.98 132.86)" d="M 3 0 A 3 3 0 1 1 0 -3 A 3 3 0 0 1 3 0 Z" /><path class="point" style="opacity: 1; fill: rgb(255, 127, 14); fill-opacity: 1; stroke-width: 0px;" transform="translate(1198.95 242.29)" d="M 3 0 A 3 3 0 1 1 0 -3 A 3 3 0 0 1 3 0 Z" /></g><g class="text" /></g></g></g><g class="overplot" /><path class="xlines-above crisp" style="fill: none;" d="M 0 0" /><path class="ylines-above crisp" style="fill: none;" d="M 0 0" /><g class="overlines-above" /><g class="xaxislayer-above"><g class="xtick"><text style="font-family: &quot;Open Sans&quot;, verdana, arial, sans-serif; font-size: 12px; white-space: pre; fill: rgb(68, 68, 68); fill-opacity: 1;" text-anchor="middle" transform="translate(106.62)" x="0" y="728" data-unformatted="Sep 1&lt;br&gt;2019" data-math="N"><tspan class="line" x="0" y="728" dy="0em">Sep 1</tspan><tspan class="line" x="0" y="728" dy="1.3em">2019</tspan></text></g><g class="xtick"><text style="font-family: &quot;Open Sans&quot;, verdana, arial, sans-serif; font-size: 12px; white-space: pre; fill: rgb(68, 68, 68); fill-opacity: 1;" text-anchor="middle" transform="translate(389.6)" x="0" y="728" data-unformatted="Sep 8" data-math="N">Sep 8</text></g><g class="xtick"><text style="font-family: &quot;Open Sans&quot;, verdana, arial, sans-serif; font-size: 12px; white-space: pre; fill: rgb(68, 68, 68); fill-opacity: 1;" text-anchor="middle" transform="translate(672.57)" x="0" y="728" data-unformatted="Sep 15" data-math="N">Sep 15</text></g><g class="xtick"><text style="font-family: &quot;Open Sans&quot;, verdana, arial, sans-serif; font-size: 12px; white-space: pre; fill: rgb(68, 68, 68); fill-opacity: 1;" text-anchor="middle" transform="translate(955.55)" x="0" y="728" data-unformatted="Sep 22" data-math="N">Sep 22</text></g><g class="xtick"><text style="font-family: &quot;Open Sans&quot;, verdana, arial, sans-serif; font-size: 12px; white-space: pre; fill: rgb(68, 68, 68); fill-opacity: 1;" text-anchor="middle" transform="translate(1238.53)" x="0" y="728" data-unformatted="Sep 29" data-math="N">Sep 29</text></g></g><g class="yaxislayer-above"><g class="ytick"><text style="font-family: &quot;Open Sans&quot;, verdana, arial, sans-serif; font-size: 12px; white-space: pre; fill: rgb(68, 68, 68); fill-opacity: 1;" text-anchor="end" transform="translate(0 693.73)" x="79" y="4.2" data-unformatted="−10" data-math="N">−10</text></g><g class="ytick"><text style="font-family: &quot;Open Sans&quot;, verdana, arial, sans-serif; font-size: 12px; white-space: pre; fill: rgb(68, 68, 68); fill-opacity: 1;" text-anchor="end" transform="translate(0 586.95)" x="79" y="4.2" data-unformatted="−5" data-math="N">−5</text></g><g class="ytick"><text style="font-family: &quot;Open Sans&quot;, verdana, arial, sans-serif; font-size: 12px; white-space: pre; fill: rgb(68, 68, 68); fill-opacity: 1;" text-anchor="end" transform="translate(0 480.18)" x="79" y="4.2" data-unformatted="0" data-math="N">0</text></g><g class="ytick"><text style="font-family: &quot;Open Sans&quot;, verdana, arial, sans-serif; font-size: 12px; white-space: pre; fill: rgb(68, 68, 68); fill-opacity: 1;" text-anchor="end" transform="translate(0 373.41)" x="79" y="4.2" data-unformatted="5" data-math="N">5</text></g><g class="ytick"><text style="font-family: &quot;Open Sans&quot;, verdana, arial, sans-serif; font-size: 12px; white-space: pre; fill: rgb(68, 68, 68); fill-opacity: 1;" text-anchor="end" transform="translate(0 266.63)" x="79" y="4.2" data-unformatted="10" data-math="N">10</text></g><g class="ytick"><text style="font-family: &quot;Open Sans&quot;, verdana, arial, sans-serif; font-size: 12px; white-space: pre; fill: rgb(68, 68, 68); fill-opacity: 1;" text-anchor="end" transform="translate(0 159.86)" x="79" y="4.2" data-unformatted="15" data-math="N">15</text></g></g><g class="overaxes-above" /></g></g><g class="polarlayer" /><g class="ternarylayer" /><g class="geolayer" /><g class="pielayer" /><g class="glimages" /></svg>