<svg xmlns="http://www.w3.org/2000/svg" class="main-svg" style="background: rgb(255, 255, 255);" width="1653.57" height="795.3"><defs id="defs-a531f1"><g class="clips"><clipPath class="plotclip" id="clipa531f1xyplot"><rect width="1265" height="615" /></clipPath><clipPath class="axesclip" id="clipa531f1x"><rect x="80" y="0" width="1265" height="795.3" /></clipPath><clipPath class="axesclip" id="clipa531f1y"><rect x="0" y="100" width="1653.57" height="615" /></clipPath><clipPath class="axesclip" id="clipa531f1xy"><rect x="80" y="100" width="1265" height="615" /></clipPath></g><g class="gradients" /></defs><g class="bglayer" /><g class="draglayer cursor-crosshair"><g class="xy"><rect class="nsewdrag drag" style="fill: transparent; pointer-events: all; stroke-width: 0;" x="80" y="100" width="1265" height="615" data-subplot="xy" /><rect class="nwdrag drag cursor-nw-resize" style="fill: transparent; pointer-events: all; stroke-width: 0;" x="60" y="80" width="20" height="20" data-subplot="xy" /><rect class="nedrag drag cursor-ne-resize" style="fill: transparent; pointer-events: all; stroke-width: 0;" x="1345" y="80" width="20" height="20" data-subplot="xy" /><rect class="swdrag drag cursor-sw-resize" style="fill: transparent; pointer-events: all; stroke-width: 0;" x="60" y="715" width="20" height="20" data-subplot="xy" /><rect class="sedrag drag cursor-se-resize" style="fill: transparent; pointer-events: all; stroke-width: 0;" x="1345" y="715" width="20" height="20" data-subplot="xy" /><rect class="ewdrag drag cursor-ew-resize" style="fill: transparent; pointer-events: all; stroke-width: 0;" x="206.5" y="715.5" width="1012" height="20" data-subplot="xy" /><rect class="wdrag drag cursor-w-resize" style="fill: transparent; pointer-events: all; stroke-width: 0;" x="80" y="715.5" width="126.5" height="20" data-subplot="xy" /><rect class="edrag drag cursor-e-resize" style="fill: transparent; pointer-events: all; stroke-width: 0;" x="1218.5" y="715.5" width="126.5" height="20" data-subplot="xy" /><rect class="nsdrag drag cursor-ns-resize" style="fill: transparent; pointer-events: all; stroke-width: 0;" x="59.5" y="161.5" width="20" height="492" data-subplot="xy" /><rect class="sdrag drag cursor-s-resize" style="fill: transparent; pointer-events: all; stroke-width: 0;" x="59.5" y="653.5" width="20" height="61.5" data-subplot="xy" /><rect class="ndrag drag cursor-n-resize" style="fill: transparent; pointer-events: all; stroke-width: 0;" x="59.5" y="100" width="20" height="61.5" data-subplot="xy" /></g></g><g class="layer-below"><g class="imagelayer" /><g class="shapelayer" /></g><g class="cartesianlayer"><g class="subplot xy"><g class="layer-subplot"><g class="shapelayer" /><g class="imagelayer" /></g><g class="gridlayer"><g class="x"><path class="xgrid crisp" style="stroke: rgb(238, 238, 238); stroke-opacity: 1; stroke-width: 1px;" transform="translate(106.61)" d="M 0 100 v 615" /><path class="xgrid crisp" style="stroke: rgb(238, 238, 238); stroke-opacity: 1; stroke-width: 1px;" transform="translate(389.36)" d="M 0 100 v 615" /><path class="xgrid crisp" style="stroke: rgb(238, 238, 238); stroke-opacity: 1; stroke-width: 1px;" transform="translate(672.11)" d="M 0 100 v 615" /><path class="xgrid crisp" style="stroke: rgb(238, 238, 238); stroke-opacity: 1; stroke-width: 1px;" transform="translate(954.86)" d="M 0 100 v 615" /><path class="xgrid crisp" style="stroke: rgb(238, 238, 238); stroke-opacity: 1; stroke-width: 1px;" transform="translate(1237.61)" d="M 0 100 v 615" /></g><g class="y"><path class="ygrid crisp" style="stroke: rgb(238, 238, 238); stroke-opacity: 1; stroke-width: 1px;" transform="translate(0 671.21)" d="M 80 0 h 1265" /><path class="ygrid crisp" style="stroke: rgb(238, 238, 238); stroke-opacity: 1; stroke-width: 1px;" transform="translate(0 606.5)" d="M 80 0 h 1265" /><path class="ygrid crisp" style="stroke: rgb(238, 238, 238); stroke-opacity: 1; stroke-width: 1px;" transform="translate(0 541.78)" d="M 80 0 h 1265" /><path class="ygrid crisp" style="stroke: rgb(238, 238, 238); stroke-opacity: 1; stroke-width: 1px;" transform="translate(0 477.06)" d="M 80 0 h 1265" /><path class="ygrid crisp" style="stroke: rgb(238, 238, 238); stroke-opacity: 1; stroke-width: 1px;" transform="translate(0 412.34)" d="M 80 0 h 1265" /><path class="ygrid crisp" style="stroke: rgb(238, 238, 238); stroke-opacity: 1; stroke-width: 1px;" transform="translate(0 347.62)" d="M 80 0 h 1265" /><path class="ygrid crisp" style="stroke: rgb(238, 238, 238); stroke-opacity: 1; stroke-width: 1px;" transform="translate(0 282.9)" d="M 80 0 h 1265" /><path class="ygrid crisp" style="stroke: rgb(238, 238, 238); stroke-opacity: 1; stroke-width: 1px;" transform="translate(0 218.18)" d="M 80 0 h 1265" /><path class="ygrid crisp" style="stroke: rgb(238, 238, 238); stroke-opacity: 1; stroke-width: 1px;" transform="translate(0 153.46)" d="M 80 0 h 1265" /></g></g><g class="zerolinelayer" /><path class="xlines-below" /><path class="ylines-below" /><g class="overlines-below" /><g class="xaxislayer-below" /><g class="yaxislayer-below" /><g class="overaxes-below" /><g class="plot" clip-path="url(&quot;#clipa531f1xyplot&quot;)" transform="translate(80 100)"><g class="scatterlayer mlayer"><g class="trace scatter trace29fc5880-39db-46f2-8207-8bd69aa116fa" style="opacity: 1; stroke-miterlimit: 2;"><g class="fills" /><g class="errorbars" /><g class="lines"><path class="js-line" style="opacity: 1; fill: none; stroke: rgb(31, 119, 180); stroke-opacity: 1; stroke-width: 2px;" d="M 67 570.26 L 349.75 502.7 L 632.5 385.53 L 915.25 280.65 L 1198 34.5" /></g><g class="points"><path class="point" style="opacity: 1; fill: rgb(31, 119, 180); fill-opacity: 1; stroke-width: 0px;" transform="translate(67 570.26)" d="M 3 0 A 3 3 0 1 1 0 -3 A 3 3 0 0 1 3 0 Z" /><path class="point" style="opacity: 1; fill: rgb(31, 119, 180); fill-opacity: 1; stroke-width: 0px;" transform="translate(349.75 502.7)" d="M 3 0 A 3 3 0 1 1 0 -3 A 3 3 0 0 1 3 0 Z" /><path class="point" style="opacity: 1; fill: rgb(31, 119, 180); fill-opacity: 1; stroke-width: 0px;" transform="translate(632.5 385.53)" d="M 3 0 A 3 3 0 1 1 0 -3 A 3 3 0 0 1 3 0 Z" /><path class="point" style="opacity: 1; fill: rgb(31, 119, 180); fill-opacity: 1; stroke-width: 0px;" transform="translate(915.25 280.65)" d="M 3 0 A 3 3 0 1 1 0 -3 A 3 3 0 0 1 3 0 Z" /><path class="point" style="opacity: 1; fill: rgb(31, 119, 180); fill-opacity: 1; stroke-width: 0px;" transform="translate(1198 34.5)" d="M 3 0 A 3 3 0 1 1 0 -3 A 3 3 0 0 1 3 0 Z" /></g><g class="text" /></g><g class="trace scatter trace435bd911-4d88-4d5c-b484-80d3208bade6" style="opacity: 1; stroke-miterlimit: 2;"><g class="fills" /><g class="errorbars" /><g class="lines"><path class="js-line" style="opacity: 1; fill: none; stroke: rgb(255, 127, 14); stroke-opacity: 1; stroke-width: 2px;" d="M 67 580.5 L 349.75 456.05 L 632.5 426.41 L 915.25 486.03 L 1198 552.35" /></g><g class="points"><path class="point" style="opacity: 1; fill: rgb(255, 127, 14); fill-opacity: 1; stroke-width: 0px;" transform="translate(67 580.5)" d="M 3 0 A 3 3 0 1 1 0 -3 A 3 3 0 0 1 3 0 Z" /><path class="point" style="opacity: 1; fill: rgb(255, 127, 14); fill-opacity: 1; stroke-width: 0px;" transform="translate(349.75 456.05)" d="M 3 0 A 3 3 0 1 1 0 -3 A 3 3 0 0 1 3 0 Z" /><path class="point" style="opacity: 1; fill: rgb(255, 127, 14); fill-opacity: 1; stroke-width: 0px;" transform="translate(632.5 426.41)" d="M 3 0 A 3 3 0 1 1 0 -3 A 3 3 0 0 1 3 0 Z" /><path class="point" style="opacity: 1; fill: rgb(255, 127, 14); fill-opacity: 1; stroke-width: 0px;" transform="translate(915.25 486.03)" d="M 3 0 A 3 3 0 1 1 0 -3 A 3 3 0 0 1 3 0 Z" /><path class="point" style="opacity: 1; fill: rgb(255, 127, 14); fill-opacity: 1; stroke-width: 0px;" transform="translate(1198 552.35)" d="M 3 0 A 3 3 0 1 1 0 -3 A 3 3 0 0 1 3 0 Z" /></g><g class="text" /></g></g></g><g class="overplot" /><path class="xlines-above crisp" style="fill: none;" d="M 0 0" /><path class="ylines-above crisp" style="fill: none;" d="M 0 0" /><g class="overlines-above" /><g class="xaxislayer-above"><g class="xtick"><text style="font-family: &quot;Open Sans&quot;, verdana, arial, sans-serif; font-size: 12px; white-space: pre; fill: rgb(68, 68, 68); fill-opacity: 1;" text-anchor="middle" transform="translate(106.61)" x="0" y="728" data-unformatted="Sep 1&lt;br&gt;2019" data-math="N"><tspan class="line" x="0" y="728" dy="0em">Sep 1</tspan><tspan class="line" x="0" y="728" dy="1.3em">2019</tspan></text></g><g class="xtick"><text style="font-family: &quot;Open Sans&quot;, verdana, arial, sans-serif; font-size: 12px; white-space: pre; fill: rgb(68, 68, 68); fill-opacity: 1;" text-anchor="middle" transform="translate(389.36)" x="0" y="728" data-unformatted="Sep 8" data-math="N">Sep 8</text></g><g class="xtick"><text style="font-family: &quot;Open Sans&quot;, verdana, arial, sans-serif; font-size: 12px; white-space: pre; fill: rgb(68, 68, 68); fill-opacity: 1;" text-anchor="middle" transform="translate(672.11)" x="0" y="728" data-unformatted="Sep 15" data-math="N">Sep 15</text></g><g class="xtick"><text style="font-family: &quot;Open Sans&quot;, verdana, arial, sans-serif; font-size: 12px; white-space: pre; fill: rgb(68, 68, 68); fill-opacity: 1;" text-anchor="middle" transform="translate(954.86)" x="0" y="728" data-unformatted="Sep 22" data-math="N">Sep 22</text></g><g class="xtick"><text style="font-family: &quot;Open Sans&quot;, verdana, arial, sans-serif; font-size: 12px; white-space: pre; fill: rgb(68, 68, 68); fill-opacity: 1;" text-anchor="middle" transform="translate(1237.61)" x="0" y="728" data-unformatted="Sep 29" data-math="N">Sep 29</text></g></g><g class="yaxislayer-above"><g class="ytick"><text style="font-family: &quot;Open Sans&quot;, verdana, arial, sans-serif; font-size: 12px; white-space: pre; fill: rgb(68, 68, 68); fill-opacity: 1;" text-anchor="end" transform="translate(0 671.21)" x="79" y="4.2" data-unformatted="5" data-math="N">5</text></g><g class="ytick"><text style="font-family: &quot;Open Sans&quot;, verdana, arial, sans-serif; font-size: 12px; white-space: pre; fill: rgb(68, 68, 68); fill-opacity: 1;" text-anchor="end" transform="translate(0 606.5)" x="79" y="4.2" data-unformatted="10" data-math="N">10</text></g><g class="ytick"><text style="font-family: &quot;Open Sans&quot;, verdana, arial, sans-serif; font-size: 12px; white-space: pre; fill: rgb(68, 68, 68); fill-opacity: 1;" text-anchor="end" transform="translate(0 541.78)" x="79" y="4.2" data-unformatted="15" data-math="N">15</text></g><g class="ytick"><text style="font-family: &quot;Open Sans&quot;, verdana, arial, sans-serif; font-size: 12px; white-space: pre; fill: rgb(68, 68, 68); fill-opacity: 1;" text-anchor="end" transform="translate(0 477.06)" x="79" y="4.2" data-unformatted="20" data-math="N">20</text></g><g class="ytick"><text style="font-family: &quot;Open Sans&quot;, verdana, arial, sans-serif; font-size: 12px; white-space: pre; fill: rgb(68, 68, 68); fill-opacity: 1;" text-anchor="end" transform="translate(0 412.34)" x="79" y="4.2" data-unformatted="25" data-math="N">25</text></g><g class="ytick"><text style="font-family: &quot;Open Sans&quot;, verdana, arial, sans-serif; font-size: 12px; white-space: pre; fill: rgb(68, 68, 68); fill-opacity: 1;" text-anchor="end" transform="translate(0 347.62)" x="79" y="4.2" data-unformatted="30" data-math="N">30</text></g><g class="ytick"><text style="font-family: &quot;Open Sans&quot;, verdana, arial, sans-serif; font-size: 12px; white-space: pre; fill: rgb(68, 68, 68); fill-opacity: 1;" text-anchor="end" transform="translate(0 282.9)" x="79" y="4.2" data-unformatted="35" data-math="N">35</text></g><g class="ytick"><text style="font-family: &quot;Open Sans&quot;, verdana, arial, sans-serif; font-size: 12px; white-space: pre; fill: rgb(68, 68, 68); fill-opacity: 1;" text-anchor="end" transform="translate(0 218.18)" x="79" y="4.2" data-unformatted="40" data-math="N">40</text></g><g class="ytick"><text style="font-family: &quot;Open Sans&quot;, verdana, arial, sans-serif; font-size: 12px; white-space: pre; fill: rgb(68, 68, 68); fill-opacity: 1;" text-anchor="end" transform="translate(0 153.46)" x="79" y="4.2" data-unformatted="45" data-math="N">45</text></g></g><g class="overaxes-above" /></g></g><g class="polarlayer" /><g class="ternarylayer" /><g class="geolayer" /><g class="pielayer" /><g class="glimages" /></svg>