<svg xmlns="http://www.w3.org/2000/svg" class="main-svg" style="background: rgb(255, 255, 255);" width="1653.57" height="795.3"><defs id="defs-32b00c"><g class="clips"><clipPath class="plotclip" id="clip32b00cxyplot"><rect width="1382" height="615" /></clipPath><clipPath class="axesclip" id="clip32b00cx"><rect x="80" y="0" width="1382" height="795.3" /></clipPath><clipPath class="axesclip" id="clip32b00cy"><rect x="0" y="100" width="1653.57" height="615" /></clipPath><clipPath class="axesclip" id="clip32b00cxy"><rect x="80" y="100" width="1382" height="615" /></clipPath></g><g class="gradients" /></defs><g class="bglayer" /><g class="draglayer cursor-crosshair"><g class="xy"><rect class="nsewdrag drag" style="fill: transparent; pointer-events: all; stroke-width: 0;" x="80" y="100" width="1382" height="615" data-subplot="xy" /><rect class="nwdrag drag cursor-nw-resize" style="fill: transparent; pointer-events: all; stroke-width: 0;" x="60" y="80" width="20" height="20" data-subplot="xy" /><rect class="nedrag drag cursor-ne-resize" style="fill: transparent; pointer-events: all; stroke-width: 0;" x="1462" y="80" width="20" height="20" data-subplot="xy" /><rect class="swdrag drag cursor-sw-resize" style="fill: transparent; pointer-events: all; stroke-width: 0;" x="60" y="715" width="20" height="20" data-subplot="xy" /><rect class="sedrag drag cursor-se-resize" style="fill: transparent; pointer-events: all; stroke-width: 0;" x="1462" y="715" width="20" height="20" data-subplot="xy" /><rect class="ewdrag drag cursor-ew-resize" style="fill: transparent; pointer-events: all; stroke-width: 0;" x="218.2" y="715.5" width="1105.6" height="20" data-subplot="xy" /><rect class="wdrag drag cursor-w-resize" style="fill: transparent; pointer-events: all; stroke-width: 0;" x="80" y="715.5" width="138.2" height="20" data-subplot="xy" /><rect class="edrag drag cursor-e-resize" style="fill: transparent; pointer-events: all; stroke-width: 0;" x="1323.8" y="715.5" width="138.2" height="20" data-subplot="xy" /><rect class="nsdrag drag cursor-ns-resize" style="fill: transparent; pointer-events: all; stroke-width: 0;" x="59.5" y="161.5" width="20" height="492" data-subplot="xy" /><rect class="sdrag drag cursor-s-resize" style="fill: transparent; pointer-events: all; stroke-width: 0;" x="59.5" y="653.5" width="20" height="61.5" data-subplot="xy" /><rect class="ndrag drag cursor-n-resize" style="fill: transparent; pointer-events: all; stroke-width: 0;" x="59.5" y="100" width="20" height="61.5" data-subplot="xy" /></g></g><g class="layer-below"><g class="imagelayer" /><g class="shapelayer" /></g><g class="cartesianlayer"><g class="subplot xy"><g class="layer-subplot"><g class="shapelayer" /><g class="imagelayer" /></g><g class="gridlayer"><g class="x"><path class="xgrid crisp" style="stroke: rgb(238, 238, 238); stroke-opacity: 1; stroke-width: 1px;" transform="translate(151.38)" d="M 0 100 v 615" /><path class="xgrid crisp" style="stroke: rgb(238, 238, 238); stroke-opacity: 1; stroke-width: 1px;" transform="translate(291.1)" d="M 0 100 v 615" /><path class="xgrid crisp" style="stroke: rgb(238, 238, 238); stroke-opacity: 1; stroke-width: 1px;" transform="translate(430.82)" d="M 0 100 v 615" /><path class="xgrid crisp" style="stroke: rgb(238, 238, 238); stroke-opacity: 1; stroke-width: 1px;" transform="translate(567.5)" d="M 0 100 v 615" /><path class="xgrid crisp" style="stroke: rgb(238, 238, 238); stroke-opacity: 1; stroke-width: 1px;" transform="translate(705.7)" d="M 0 100 v 615" /><path class="xgrid crisp" style="stroke: rgb(238, 238, 238); stroke-opacity: 1; stroke-width: 1px;" transform="translate(845.42)" d="M 0 100 v 615" /><path class="xgrid crisp" style="stroke: rgb(238, 238, 238); stroke-opacity: 1; stroke-width: 1px;" transform="translate(985.13)" d="M 0 100 v 615" /><path class="xgrid crisp" style="stroke: rgb(238, 238, 238); stroke-opacity: 1; stroke-width: 1px;" transform="translate(1121.82)" d="M 0 100 v 615" /><path class="xgrid crisp" style="stroke: rgb(238, 238, 238); stroke-opacity: 1; stroke-width: 1px;" transform="translate(1260.02)" d="M 0 100 v 615" /><path class="xgrid crisp" style="stroke: rgb(238, 238, 238); stroke-opacity: 1; stroke-width: 1px;" transform="translate(1399.73)" d="M 0 100 v 615" /></g><g class="y"><path class="ygrid crisp" style="stroke: rgb(238, 238, 238); stroke-opacity: 1; stroke-width: 1px;" transform="translate(0 650.19)" d="M 80 0 h 1382" /><path class="ygrid crisp" style="stroke: rgb(238, 238, 238); stroke-opacity: 1; stroke-width: 1px;" transform="translate(0 565.03)" d="M 80 0 h 1382" /><path class="ygrid crisp" style="stroke: rgb(238, 238, 238); stroke-opacity: 1; stroke-width: 1px;" transform="translate(0 479.88)" d="M 80 0 h 1382" /><path class="ygrid crisp" style="stroke: rgb(238, 238, 238); stroke-opacity: 1; stroke-width: 1px;" transform="translate(0 394.73)" d="M 80 0 h 1382" /><path class="ygrid crisp" style="stroke: rgb(238, 238, 238); stroke-opacity: 1; stroke-width: 1px;" transform="translate(0 309.57)" d="M 80 0 h 1382" /><path class="ygrid crisp" style="stroke: rgb(238, 238, 238); stroke-opacity: 1; stroke-width: 1px;" transform="translate(0 224.42)" d="M 80 0 h 1382" /><path class="ygrid crisp" style="stroke: rgb(238, 238, 238); stroke-opacity: 1; stroke-width: 1px;" transform="translate(0 139.27)" d="M 80 0 h 1382" /></g></g><g class="zerolinelayer" /><path class="xlines-below" /><path class="ylines-below" /><g class="overlines-below" /><g class="xaxislayer-below" /><g class="yaxislayer-below" /><g class="overaxes-below" /><g class="plot" clip-path="url(&quot;#clip32b00cxyplot&quot;)" transform="translate(80 100)"><g class="scatterlayer mlayer"><g class="trace scatter trace9dc55345-ba6f-4768-a536-3a40cbdad05c" style="opacity: 1; stroke-miterlimit: 2;"><g class="fills" /><g class="errorbars" /><g class="lines"><path class="js-line" style="opacity: 1; fill: none; stroke: rgb(31, 119, 180); stroke-opacity: 1; stroke-width: 2px;" d="M 0 562.11 L 1.52 563.81 L 3.04 569.77 L 6.07 576.59 L 10.63 577.44 L 12.15 568.07 L 13.67 566.37 L 15.19 541.67 L 16.71 541.67 L 22.78 540.82 L 24.3 533.16 L 27.34 535.71 L 31.89 547.63 L 33.41 546.78 L 34.93 539.12 L 36.45 539.12 L 37.97 537.42 L 42.52 540.82 L 44.04 539.97 L 48.6 548.49 L 53.15 539.12 L 54.67 539.97 L 56.19 537.42 L 57.71 528.9 L 59.23 528.9 L 63.78 524.64 L 65.3 519.53 L 66.82 513.57 L 68.34 513.57 L 69.86 516.98 L 74.42 516.13 L 75.93 521.24 L 77.45 518.68 L 78.97 516.13 L 80.49 510.17 L 85.05 499.95 L 86.56 443.75 L 88.08 436.08 L 89.6 388.4 L 91.12 388.4 L 95.68 396.06 L 97.2 375.62 L 98.71 372.22 L 101.75 389.25 L 106.31 384.14 L 107.83 379.88 L 109.35 402.02 L 110.86 414.79 L 112.38 402.02 L 116.94 407.98 L 118.46 376.47 L 119.98 367.11 L 121.49 379.03 L 123.01 365.4 L 127.57 379.88 L 129.09 375.62 L 130.61 402.87 L 132.13 412.24 L 133.64 463.33 L 139.72 438.64 L 141.24 436.08 L 142.76 429.27 L 144.27 427.57 L 148.83 425.86 L 150.35 409.68 L 151.87 388.4 L 153.39 385.84 L 154.91 370.51 L 159.46 350.08 L 160.98 322.83 L 162.5 343.26 L 164.02 356.04 L 165.54 362 L 170.09 318.57 L 171.61 325.38 L 173.13 320.27 L 174.65 342.41 L 176.17 338.16 L 180.72 347.52 L 182.24 333.9 L 183.76 343.26 L 185.28 352.63 L 186.8 355.19 L 191.35 358.59 L 192.87 368.81 L 195.91 340.71 L 197.43 342.41 L 201.98 355.19 L 203.5 375.62 L 205.02 385.84 L 206.54 390.1 L 208.06 370.51 L 223.25 354.33 L 224.76 339.86 L 226.28 334.75 L 227.8 333.05 L 229.32 349.23 L 233.88 329.64 L 235.4 336.45 L 236.91 321.12 L 238.43 326.23 L 239.95 339.01 L 244.51 363.7 L 246.03 346.67 L 247.55 356.89 L 249.06 364.55 L 250.58 332.19 L 255.14 332.19 L 256.66 333.9 L 258.18 345.82 L 259.69 333.9 L 261.21 346.67 L 265.77 356.04 L 267.29 301.54 L 268.81 283.66 L 270.33 266.63 L 271.84 269.18 L 276.4 218.09 L 277.92 213.83 L 279.44 218.09 L 280.96 201.06 L 282.47 194.25 L 287.03 103.13 L 288.55 86.1 L 290.07 30.75 L 291.59 94.62 L 293.11 76.73 L 299.18 149.97 L 300.7 139.75 L 303.74 209.57 L 308.29 184.03 L 309.81 184.03 L 311.33 202.76 L 312.85 224.05 L 314.37 201.91 L 318.92 167 L 320.44 207.87 L 321.96 198.5 L 323.48 209.57 L 325 233.42 L 329.55 230.86 L 331.07 185.73 L 332.59 187.43 L 334.11 163.59 L 335.63 165.29 L 340.18 188.28 L 341.7 153.37 L 343.22 184.88 L 344.74 191.69 L 352.33 149.97 L 353.85 181.47 L 355.37 188.28 L 356.89 184.03 L 361.45 212.98 L 362.96 202.76 L 364.48 169.55 L 366 175.51 L 367.52 162.74 L 372.08 107.39 L 373.6 107.39 L 375.11 104.83 L 376.63 63.11 L 378.15 56.3 L 382.71 86.95 L 384.23 69.07 L 385.75 69.92 L 387.26 107.39 L 388.78 120.16 L 393.34 146.56 L 394.86 154.22 L 396.38 120.16 L 397.89 121.86 L 399.41 120.16 L 403.97 77.58 L 405.49 124.42 L 407.01 216.39 L 408.53 248.74 L 410.04 321.12 L 414.6 318.57 L 416.12 299.84 L 417.64 294.73 L 429.79 255.56 L 431.31 242.78 L 435.86 241.08 L 437.38 270.88 L 438.9 290.47 L 440.42 291.32 L 441.94 298.98 L 446.49 306.65 L 448.01 286.21 L 449.53 290.47 L 451.05 285.36 L 452.57 287.06 L 458.64 293.02 L 460.16 301.54 L 461.68 319.42 L 463.2 325.38 L 467.75 309.2 L 469.27 310.05 L 470.79 303.24 L 472.31 323.68 L 473.83 350.93 L 478.38 385.84 L 479.9 384.99 L 481.42 389.25 L 482.94 375.62 L 484.46 388.4 L 489.02 404.58 L 490.53 417.35 L 492.05 390.95 L 499.65 378.18 L 502.68 309.2 L 504.2 335.6 L 505.72 331.34 L 510.28 371.37 L 511.8 362 L 513.31 337.3 L 514.83 339.86 L 516.35 350.08 L 520.91 331.34 L 522.43 306.65 L 525.46 344.12 L 526.98 392.65 L 534.58 390.1 L 536.09 401.17 L 537.61 407.13 L 542.17 396.06 L 543.69 379.03 L 545.21 382.44 L 546.73 379.03 L 548.24 379.03 L 552.8 364.55 L 554.32 369.66 L 555.84 388.4 L 557.36 395.21 L 558.87 383.29 L 563.43 384.14 L 564.95 391.8 L 566.47 409.68 L 569.51 414.79 L 574.06 414.79 L 577.1 458.22 L 578.62 449.71 L 580.14 448.86 L 584.69 442.04 L 586.21 442.89 L 587.73 453.11 L 589.25 433.53 L 590.77 454.82 L 595.32 461.63 L 596.84 459.93 L 598.36 469.29 L 599.88 459.07 L 601.4 450.56 L 607.47 476.1 L 608.99 472.7 L 610.51 476.96 L 612.03 477.81 L 616.58 511.02 L 618.1 519.53 L 619.62 542.52 L 621.14 557 L 622.66 542.52 L 627.22 583.4 L 628.73 578.29 L 630.25 583.4 L 631.77 584.25 L 633.29 579.14 L 637.85 547.63 L 639.36 551.89 L 640.88 568.92 L 642.4 560.41 L 643.92 560.41 L 648.48 573.18 L 650 574.03 L 651.51 575.73 L 653.03 573.18 L 654.55 540.82 L 659.11 514.42 L 662.15 517.83 L 663.66 528.9 L 665.18 528.9 L 669.74 516.98 L 671.26 514.42 L 672.78 537.42 L 674.29 555.3 L 675.81 557.85 L 680.37 555.3 L 681.89 535.71 L 683.41 545.93 L 684.93 525.49 L 692.52 550.19 L 694.04 568.07 L 695.56 568.92 L 697.07 566.37 L 701.63 550.19 L 703.15 530.6 L 706.19 519.53 L 707.71 462.48 L 712.26 428.42 L 713.78 440.34 L 715.3 442.04 L 716.82 454.82 L 718.34 453.96 L 722.89 448.86 L 724.41 428.42 L 725.93 460.78 L 727.45 467.59 L 728.97 464.18 L 733.52 475.25 L 735.04 472.7 L 736.56 475.25 L 738.08 468.44 L 739.6 478.66 L 744.15 491.43 L 745.67 458.22 L 747.19 444.6 L 748.71 445.45 L 750.23 407.98 L 756.3 418.2 L 757.82 404.58 L 759.34 402.02 L 760.86 375.62 L 776.05 426.72 L 777.56 417.35 L 779.08 426.72 L 780.6 476.96 L 782.12 439.49 L 786.68 455.67 L 788.2 433.53 L 789.71 436.93 L 791.23 457.37 L 792.75 400.32 L 797.31 367.11 L 798.83 393.51 L 801.86 355.19 L 803.38 364.55 L 807.94 401.17 L 809.46 388.4 L 810.98 387.54 L 812.49 394.36 L 814.01 372.22 L 818.57 386.69 L 820.09 393.51 L 821.61 396.06 L 823.13 389.25 L 824.64 418.2 L 829.2 417.35 L 830.72 419.05 L 832.24 427.57 L 833.76 412.24 L 835.27 416.5 L 839.83 392.65 L 841.35 416.5 L 842.87 413.09 L 844.39 418.2 L 845.91 437.79 L 850.46 436.08 L 851.98 449.71 L 853.5 441.19 L 855.02 448 L 856.54 434.38 L 861.09 414.79 L 862.61 414.79 L 864.13 426.72 L 865.65 443.75 L 867.17 441.19 L 871.72 450.56 L 873.24 445.45 L 874.76 444.6 L 876.28 431.82 L 877.8 450.56 L 882.35 440.34 L 886.91 489.73 L 888.43 511.87 L 892.98 514.42 L 894.5 521.24 L 897.54 526.35 L 899.06 517.83" /></g><g class="points" /><g class="text" /></g><g class="trace scatter tracec28df5a7-36ec-42f9-b500-1e3b4b774fc7" style="opacity: 1; stroke-miterlimit: 2;"><g class="fills" /><g class="errorbars" /><g class="lines"><path class="js-line" style="opacity: 1; fill: none; stroke: rgb(255, 127, 14); stroke-opacity: 1; stroke-width: 2px;" d="M 906.65 562.11 L 908.17 563.81 L 909.69 569.77 L 914.25 573.18 L 915.76 576.59 L 917.28 577.44 L 918.8 568.07 L 920.32 566.37 L 924.88 541.67 L 926.4 541.67 L 927.91 540.82 L 929.43 533.16 L 930.95 534.01 L 935.51 535.71 L 937.03 547.63 L 938.55 546.78 L 940.06 539.12 L 941.58 539.12 L 946.14 537.42 L 947.66 540.82 L 949.18 539.97 L 952.21 546.78 L 967.4 548.49 L 968.92 539.12 L 970.44 539.97 L 971.96 537.42 L 973.47 528.9 L 978.03 528.9 L 979.55 524.64 L 982.59 513.57 L 984.11 513.57 L 988.66 516.98 L 990.18 516.13 L 991.7 521.24 L 993.22 518.68 L 994.74 516.13 L 999.29 510.17 L 1000.81 499.95 L 1002.33 443.75 L 1003.85 436.08 L 1005.37 388.4 L 1009.92 388.4 L 1011.44 396.06 L 1012.96 375.62 L 1014.48 372.22 L 1016 382.44 L 1020.55 389.25 L 1023.59 379.88 L 1025.11 402.02 L 1026.63 414.79 L 1031.18 402.02 L 1032.7 407.98 L 1034.22 376.47 L 1035.74 367.11 L 1037.26 379.03 L 1041.82 365.4 L 1043.33 379.88 L 1044.85 375.62 L 1046.37 402.87 L 1052.45 412.24 L 1053.96 463.33 L 1055.48 446.3 L 1057 438.64 L 1063.08 429.27 L 1064.6 427.57 L 1066.11 425.86 L 1067.63 409.68 L 1069.15 388.4 L 1073.71 385.84 L 1076.75 350.08 L 1078.26 322.83 L 1079.78 343.26 L 1084.34 356.04 L 1085.86 362 L 1094.97 318.57 L 1096.49 325.38 L 1098.01 320.27 L 1099.53 342.41 L 1101.04 338.16 L 1105.6 347.52 L 1107.12 333.9 L 1110.16 352.63 L 1111.67 355.19 L 1116.23 358.59 L 1117.75 368.81 L 1120.79 340.71 L 1122.31 342.41 L 1126.86 355.19 L 1128.38 375.62 L 1129.9 385.84 L 1131.42 390.1 L 1132.94 370.51 L 1137.49 354.33 L 1139.01 339.86 L 1140.53 334.75 L 1142.05 333.05 L 1148.12 349.23 L 1149.64 329.64 L 1151.16 336.45 L 1152.68 321.12 L 1154.2 326.23 L 1158.75 339.01 L 1160.27 363.7 L 1161.79 346.67 L 1163.31 356.89 L 1164.83 364.55 L 1169.38 332.19 L 1170.9 332.19 L 1172.42 333.9 L 1173.94 345.82 L 1175.46 333.9 L 1180.02 346.67 L 1181.53 356.04 L 1183.05 301.54 L 1184.57 283.66 L 1186.09 266.63 L 1190.65 269.18 L 1192.16 218.09 L 1193.68 213.83 L 1195.2 218.09 L 1196.72 201.06 L 1201.28 194.25 L 1202.8 103.13 L 1204.31 86.1 L 1205.83 30.75 L 1207.35 94.62 L 1211.91 76.73 L 1213.43 130.38 L 1214.95 149.97 L 1216.46 139.75 L 1217.98 177.21 L 1222.54 209.57 L 1224.06 184.03 L 1225.58 184.03 L 1227.09 202.76 L 1228.61 224.05 L 1233.17 201.91 L 1234.69 167 L 1236.21 207.87 L 1237.73 198.5 L 1239.24 209.57 L 1243.8 233.42 L 1245.32 230.86 L 1246.84 185.73 L 1248.36 187.43 L 1249.87 163.59 L 1254.43 165.29 L 1255.95 188.28 L 1257.47 153.37 L 1258.99 184.88 L 1260.51 191.69 L 1265.06 184.03 L 1266.58 149.97 L 1268.1 181.47 L 1269.62 188.28 L 1271.14 184.03 L 1275.69 212.98 L 1277.21 202.76 L 1278.73 169.55 L 1280.25 175.51 L 1281.77 162.74 L 1286.32 107.39 L 1287.84 107.39 L 1289.36 104.83 L 1290.88 63.11 L 1296.95 56.3 L 1298.47 86.95 L 1299.99 69.07 L 1301.51 69.92 L 1303.03 107.39 L 1307.58 120.16 L 1309.1 146.56 L 1310.62 154.22 L 1312.14 120.16 L 1313.66 121.86 L 1318.22 120.16 L 1330.36 77.58 L 1331.88 124.42 L 1333.4 216.39 L 1334.92 248.74 L 1339.48 321.12 L 1341 318.57 L 1342.51 299.84 L 1344.03 294.73 L 1345.55 255.56 L 1350.11 242.78 L 1351.63 241.08 L 1354.66 290.47 L 1356.18 291.32 L 1360.74 298.98 L 1362.26 306.65 L 1363.78 286.21 L 1365.29 290.47 L 1366.81 285.36 L 1371.37 287.06 L 1372.89 292.17 L 1374.41 293.02 L 1375.93 301.54 L 1377.44 319.42 L 1382 325.38" /></g><g class="points" /><g class="text" /></g><g class="trace scatter trace5c6f9ba5-6b2d-45d2-a32b-7b63fda3a2a6" style="opacity: 1; stroke-miterlimit: 2;"><g class="fills" /><g class="errorbars" /><g class="lines"><path class="js-line" style="opacity: 1; fill: none; stroke: rgb(44, 160, 44); stroke-opacity: 1; stroke-width: 2px;" d="M 906.65 436.77 L 909.69 438.27 L 914.25 438.98 L 920.32 441.75 L 924.88 442.51 L 930.95 445.39 L 935.51 446 L 941.58 448.59 L 946.14 449.2 L 952.21 450.58 L 967.4 450.94 L 981.07 453.49 L 982.59 454.05 L 984.11 454.64 L 988.66 455.04 L 1005.37 459.99 L 1009.92 460.33 L 1043.33 466.02 L 1044.85 466.27 L 1046.37 466.52 L 1052.45 466.68 L 1094.97 467.43 L 1096.49 467.22 L 1108.64 464.69 L 1110.16 464.12 L 1111.67 463.55 L 1116.23 462.99 L 1132.94 458.49 L 1137.49 458.1 L 1154.2 455.6 L 1158.75 455.13 L 1164.83 453.31 L 1169.38 452.97 L 1186.09 448.75 L 1190.65 448.41 L 1204.31 448.45 L 1205.83 448.55 L 1236.21 447.79 L 1237.73 448 L 1248.36 448.93 L 1249.87 448.79 L 1266.58 449.52 L 1268.1 449.79 L 1277.21 451.25 L 1278.73 451.56 L 1290.88 453.4 L 1296.95 453.71 L 1318.22 455.6 L 1330.36 455.69 L 1365.29 457.08 L 1366.81 457.02 L 1375.93 456.01 L 1377.44 455.68 L 1382 455.34" /></g><g class="points" /><g class="text" /></g><g class="trace scatter tracecc1a2540-2ad9-463e-8d27-1837998248b4" style="opacity: 1; stroke-miterlimit: 2;"><g class="fills" /><g class="errorbars" /><g class="lines"><path class="js-line" style="opacity: 1; fill: none; stroke: rgb(214, 39, 40); stroke-opacity: 1; stroke-width: 2px;" d="M 1243.8 431.19 L 1248.36 431.57 L 1249.87 430.82 L 1258.99 430.09 L 1260.51 429.63 L 1265.06 430.12 L 1266.58 431.17 L 1269.62 432.72 L 1271.14 434.01 L 1278.73 436.53 L 1280.25 437.34 L 1281.77 438.06 L 1286.32 439.16 L 1290.88 441.55 L 1296.95 442.42 L 1303.03 443.92 L 1307.58 444.45 L 1313.66 446.83 L 1318.22 447.31 L 1341 447.95 L 1342.51 448.5 L 1345.55 449.43 L 1350.11 449.53 L 1365.29 450.19 L 1366.81 449.86 L 1371.37 449.19 L 1372.89 448.15 L 1377.44 444.49 L 1382 443.13" /></g><g class="points" /><g class="text" /></g></g></g><g class="overplot" /><path class="xlines-above crisp" style="fill: none;" d="M 0 0" /><path class="ylines-above crisp" style="fill: none;" d="M 0 0" /><g class="overlines-above" /><g class="xaxislayer-above"><g class="xtick"><text style="font-family: &quot;Open Sans&quot;, verdana, arial, sans-serif; font-size: 12px; white-space: pre; fill: rgb(68, 68, 68); fill-opacity: 1;" text-anchor="middle" transform="translate(151.38)" x="0" y="728" data-unformatted="Jul 2017" data-math="N">Jul 2017</text></g><g class="xtick"><text style="font-family: &quot;Open Sans&quot;, verdana, arial, sans-serif; font-size: 12px; white-space: pre; fill: rgb(68, 68, 68); fill-opacity: 1;" text-anchor="middle" transform="translate(291.1)" x="0" y="728" data-unformatted="Oct 2017" data-math="N">Oct 2017</text></g><g class="xtick"><text style="font-family: &quot;Open Sans&quot;, verdana, arial, sans-serif; font-size: 12px; white-space: pre; fill: rgb(68, 68, 68); fill-opacity: 1;" text-anchor="middle" transform="translate(430.82)" x="0" y="728" data-unformatted="Jan 2018" data-math="N">Jan 2018</text></g><g class="xtick"><text style="font-family: &quot;Open Sans&quot;, verdana, arial, sans-serif; font-size: 12px; white-space: pre; fill: rgb(68, 68, 68); fill-opacity: 1;" text-anchor="middle" transform="translate(567.5)" x="0" y="728" data-unformatted="Apr 2018" data-math="N">Apr 2018</text></g><g class="xtick"><text style="font-family: &quot;Open Sans&quot;, verdana, arial, sans-serif; font-size: 12px; white-space: pre; fill: rgb(68, 68, 68); fill-opacity: 1;" text-anchor="middle" transform="translate(705.7)" x="0" y="728" data-unformatted="Jul 2018" data-math="N">Jul 2018</text></g><g class="xtick"><text style="font-family: &quot;Open Sans&quot;, verdana, arial, sans-serif; font-size: 12px; white-space: pre; fill: rgb(68, 68, 68); fill-opacity: 1;" text-anchor="middle" transform="translate(845.42)" x="0" y="728" data-unformatted="Oct 2018" data-math="N">Oct 2018</text></g><g class="xtick"><text style="font-family: &quot;Open Sans&quot;, verdana, arial, sans-serif; font-size: 12px; white-space: pre; fill: rgb(68, 68, 68); fill-opacity: 1;" text-anchor="middle" transform="translate(985.13)" x="0" y="728" data-unformatted="Jan 2019" data-math="N">Jan 2019</text></g><g class="xtick"><text style="font-family: &quot;Open Sans&quot;, verdana, arial, sans-serif; font-size: 12px; white-space: pre; fill: rgb(68, 68, 68); fill-opacity: 1;" text-anchor="middle" transform="translate(1121.82)" x="0" y="728" data-unformatted="Apr 2019" data-math="N">Apr 2019</text></g><g class="xtick"><text style="font-family: &quot;Open Sans&quot;, verdana, arial, sans-serif; font-size: 12px; white-space: pre; fill: rgb(68, 68, 68); fill-opacity: 1;" text-anchor="middle" transform="translate(1260.02)" x="0" y="728" data-unformatted="Jul 2019" data-math="N">Jul 2019</text></g><g class="xtick"><text style="font-family: &quot;Open Sans&quot;, verdana, arial, sans-serif; font-size: 12px; white-space: pre; fill: rgb(68, 68, 68); fill-opacity: 1;" text-anchor="middle" transform="translate(1399.73)" x="0" y="728" data-unformatted="Oct 2019" data-math="N">Oct 2019</text></g></g><g class="yaxislayer-above"><g class="ytick"><text style="font-family: &quot;Open Sans&quot;, verdana, arial, sans-serif; font-size: 12px; white-space: pre; fill: rgb(68, 68, 68); fill-opacity: 1;" text-anchor="end" transform="translate(0 650.19)" x="79" y="4.2" data-unformatted="9" data-math="N">9</text></g><g class="ytick"><text style="font-family: &quot;Open Sans&quot;, verdana, arial, sans-serif; font-size: 12px; white-space: pre; fill: rgb(68, 68, 68); fill-opacity: 1;" text-anchor="end" transform="translate(0 565.03)" x="79" y="4.2" data-unformatted="10" data-math="N">10</text></g><g class="ytick"><text style="font-family: &quot;Open Sans&quot;, verdana, arial, sans-serif; font-size: 12px; white-space: pre; fill: rgb(68, 68, 68); fill-opacity: 1;" text-anchor="end" transform="translate(0 479.88)" x="79" y="4.2" data-unformatted="11" data-math="N">11</text></g><g class="ytick"><text style="font-family: &quot;Open Sans&quot;, verdana, arial, sans-serif; font-size: 12px; white-space: pre; fill: rgb(68, 68, 68); fill-opacity: 1;" text-anchor="end" transform="translate(0 394.73)" x="79" y="4.2" data-unformatted="12" data-math="N">12</text></g><g class="ytick"><text style="font-family: &quot;Open Sans&quot;, verdana, arial, sans-serif; font-size: 12px; white-space: pre; fill: rgb(68, 68, 68); fill-opacity: 1;" text-anchor="end" transform="translate(0 309.57)" x="79" y="4.2" data-unformatted="13" data-math="N">13</text></g><g class="ytick"><text style="font-family: &quot;Open Sans&quot;, verdana, arial, sans-serif; font-size: 12px; white-space: pre; fill: rgb(68, 68, 68); fill-opacity: 1;" text-anchor="end" transform="translate(0 224.42)" x="79" y="4.2" data-unformatted="14" data-math="N">14</text></g><g class="ytick"><text style="font-family: &quot;Open Sans&quot;, verdana, arial, sans-serif; font-size: 12px; white-space: pre; fill: rgb(68, 68, 68); fill-opacity: 1;" text-anchor="end" transform="translate(0 139.27)" x="79" y="4.2" data-unformatted="15" data-math="N">15</text></g></g><g class="overaxes-above" /></g></g><g class="polarlayer" /><g class="ternarylayer" /><g class="geolayer" /><g class="pielayer" /><g class="glimages" /></svg>